<svg width="420" height="110" viewBox="0 0 420 110" xmlns="http://www.w3.org/2000/svg">
  <defs>
    <linearGradient id="goldG" x1="0%" y1="0%" x2="100%" y2="100%"><stop offset="0%" style="stop-color:#E8B84B"/><stop offset="100%" style="stop-color:#C9972A"/></linearGradient>
    <filter id="glow"><feGaussianBlur stdDeviation="1.8" result="b"/><feMerge><feMergeNode in="b"/><feMergeNode in="SourceGraphic"/></feMerge></filter>
  </defs>
  <rect width="420" height="110" fill="#050D1A" rx="12"/>
  <rect width="418" height="108" fill="none" stroke="#C9972A44" stroke-width="1" rx="12" x="1" y="1"/>
  <g transform="translate(10,5)">
    <polygon points="50,8 86.37,29 86.37,71 50,92 13.63,71 13.63,29" fill="none" stroke="url(#goldG)" stroke-width="1.8" filter="url(#glow)"/>
    <polygon points="50,8 86.37,71 13.63,71" fill="none" stroke="url(#goldG)" stroke-width="1.6" opacity="0.9"/>
    <polygon points="86.37,29 50,92 13.63,29" fill="none" stroke="url(#goldG)" stroke-width="1.6" opacity="0.55"/>
    <circle cx="50" cy="8" r="3.8" fill="url(#goldG)" filter="url(#glow)"/>
    <circle cx="86.37" cy="71" r="3.8" fill="url(#goldG)" filter="url(#glow)"/>
    <circle cx="13.63" cy="71" r="3.8" fill="url(#goldG)" filter="url(#glow)"/>
    <circle cx="50" cy="50" r="6" fill="url(#goldG)" filter="url(#glow)"/>
    <circle cx="50" cy="50" r="2.4" fill="#FFFFFF" opacity="0.9"/>
  </g>
  <text x="116" y="42" font-family="Georgia,serif" font-size="34" font-weight="900" fill="url(#goldG)" letter-spacing="1">kyriosMICA</text>
  <text x="118" y="60" font-family="'Courier New',monospace" font-size="9.5" fill="#C9972A99" letter-spacing="1.8">MATHEMATICAL INTERFACE FOR</text>
  <text x="118" y="74" font-family="'Courier New',monospace" font-size="9.5" fill="#C9972A99" letter-spacing="1.8">CELLULAR ARCHITECTURE</text>
  <text x="118" y="92" font-family="Georgia,serif" font-size="11" fill="#C9972A66" font-style="italic">Sceau Officiel · Institut de Recherche · 2026</text>
</svg>
