<svg xmlns="http://www.w3.org/2000/svg" width="1400" height="340" viewBox="0 0 1400 340" shape-rendering="geometricPrecision">
<rect width="1400" height="340" fill="#0A1628"/>
<line x1="66.08" y1="110.00" x2="273.92" y2="230.00" stroke="#E8B84B" stroke-width="0.75" opacity="0.22" stroke-dasharray="3.12,3.12"/>
<line x1="170.00" y1="50.00" x2="170.00" y2="290.00" stroke="#E8B84B" stroke-width="0.75" opacity="0.22" stroke-dasharray="3.12,3.12"/>
<line x1="273.92" y1="110.00" x2="66.08" y2="230.00" stroke="#E8B84B" stroke-width="0.75" opacity="0.22" stroke-dasharray="3.12,3.12"/>
<line x1="170.00" y1="170.00" x2="226.25" y2="170.00" stroke="#22D3EE" stroke-width="1.00" opacity="0.35"/>
<line x1="170.00" y1="170.00" x2="198.12" y2="218.71" stroke="#22D3EE" stroke-width="1.00" opacity="0.35"/>
<line x1="170.00" y1="170.00" x2="141.88" y2="218.71" stroke="#22D3EE" stroke-width="1.00" opacity="0.35"/>
<line x1="170.00" y1="170.00" x2="113.75" y2="170.00" stroke="#22D3EE" stroke-width="1.00" opacity="0.35"/>
<line x1="170.00" y1="170.00" x2="141.87" y2="121.29" stroke="#22D3EE" stroke-width="1.00" opacity="0.35"/>
<line x1="170.00" y1="170.00" x2="198.12" y2="121.29" stroke="#22D3EE" stroke-width="1.00" opacity="0.35"/>
<line x1="226.25" y1="170.00" x2="198.12" y2="218.71" stroke="#22D3EE" stroke-width="1.00" opacity="0.35"/>
<line x1="198.12" y1="218.71" x2="141.88" y2="218.71" stroke="#22D3EE" stroke-width="1.00" opacity="0.35"/>
<line x1="141.88" y1="218.71" x2="113.75" y2="170.00" stroke="#22D3EE" stroke-width="1.00" opacity="0.35"/>
<line x1="113.75" y1="170.00" x2="141.87" y2="121.29" stroke="#22D3EE" stroke-width="1.00" opacity="0.35"/>
<line x1="141.87" y1="121.29" x2="198.12" y2="121.29" stroke="#22D3EE" stroke-width="1.00" opacity="0.35"/>
<line x1="198.12" y1="121.29" x2="226.25" y2="170.00" stroke="#22D3EE" stroke-width="1.00" opacity="0.35"/>
<path d="M 295.00,170.00 L 232.50,278.25 L 107.50,278.25 L 45.00,170.00 L 107.50,61.75 L 232.50,61.75 Z" fill="none" stroke="#C9972A" stroke-width="4.38" stroke-linejoin="round" stroke-linecap="round"/>
<circle cx="226.25" cy="170.00" r="7.75" fill="#22D3EE" opacity="0.95"/>
<circle cx="198.12" cy="218.71" r="7.75" fill="#22D3EE" opacity="0.95"/>
<circle cx="141.88" cy="218.71" r="7.75" fill="#22D3EE" opacity="0.95"/>
<circle cx="113.75" cy="170.00" r="7.75" fill="#22D3EE" opacity="0.95"/>
<circle cx="141.87" cy="121.29" r="7.75" fill="#22D3EE" opacity="0.95"/>
<circle cx="198.12" cy="121.29" r="7.75" fill="#22D3EE" opacity="0.95"/>
<circle cx="295.00" cy="170.00" r="6.88" fill="#C9972A"/>
<circle cx="232.50" cy="278.25" r="6.88" fill="#C9972A"/>
<circle cx="107.50" cy="278.25" r="6.88" fill="#C9972A"/>
<circle cx="45.00" cy="170.00" r="6.88" fill="#C9972A"/>
<circle cx="107.50" cy="61.75" r="6.88" fill="#C9972A"/>
<circle cx="232.50" cy="61.75" r="6.88" fill="#C9972A"/>
<circle cx="170.00" cy="170.00" r="13.12" fill="#8B4513"/><circle cx="170.00" cy="170.00" r="6.88" fill="#5C3310"/>
<g>
<path d="M227 783V93Q227 51 240.5 36.0Q254 21 287 21V0Q268 1 231.5 2.5Q195 4 157 4Q118 4 78.5 2.5Q39 1 19 0V21Q54 21 68.5 36.0Q83 51 83 93V663Q83 708 69.5 729.5Q56 751 19 751V772Q51 769 81 769Q122 769 159.0 772.5Q196 776 227 783ZM553 517V497Q522 491 491.0 471.0Q460 451 428 420L351 340L361 359L532 73Q543 55 555.0 41.0Q567 27 584 21V0Q569 1 539.0 2.5Q509 4 479 4Q442 4 405.0 2.5Q368 1 350 0V21Q370 21 377.0 30.5Q384 40 375 55L276 234Q264 253 252.5 258.5Q241 264 222 265V284Q243 286 258.5 291.0Q274 296 287 310L363 384Q397 416 397.0 441.0Q397 466 375.5 481.0Q354 496 319 497V517Q347 516 380.0 515.0Q413 514 436 514Q456 514 478.5 514.5Q501 515 521.0 515.5Q541 516 553 517Z" fill="#F1F5F9" transform="translate(360.000,130.000) scale(0.08200,-0.08200)"/>
<path d="M513 517V497Q494 492 477.0 473.5Q460 455 444 411L303 15L266 -55L48 440Q31 479 14.5 487.5Q-2 496 -14 496V517Q19 514 54.5 512.5Q90 511 123 511Q164 511 198.0 513.0Q232 515 262 517V496Q242 496 224.5 493.5Q207 491 200.5 479.5Q194 468 206 440L332 136L323 130L397 337Q416 391 413.0 425.5Q410 460 391.0 477.5Q372 495 339 497V517Q355 516 372.0 515.5Q389 515 406.0 514.5Q423 514 436 514Q456 514 478.0 515.0Q500 516 513 517ZM303 15 265 -92Q255 -117 244.5 -134.5Q234 -152 221 -163Q207 -175 185.0 -181.5Q163 -188 134 -188Q110 -188 84.5 -180.0Q59 -172 42.0 -154.0Q25 -136 25 -108Q25 -77 47.0 -58.5Q69 -40 105 -40Q138 -40 159.0 -56.0Q180 -72 180 -103Q180 -123 167.5 -141.0Q155 -159 130 -168Q135 -169 142.0 -169.0Q149 -169 153 -169Q183 -169 206.0 -150.0Q229 -131 244 -90L279 13Z" fill="#F1F5F9" transform="translate(407.970,130.000) scale(0.08200,-0.08200)"/>
<path d="M368 531Q400 531 420.0 517.5Q440 504 449.5 483.0Q459 462 459 439Q459 402 437.5 378.5Q416 355 381 355Q346 355 326.5 372.5Q307 390 307 419Q307 447 319.5 465.5Q332 484 351 497Q337 501 323 496Q304 493 287.0 480.5Q270 468 258.0 449.5Q246 431 239.0 409.5Q232 388 232 368V103Q232 55 255.5 38.0Q279 21 326 21V0Q303 1 259.0 2.5Q215 4 167 4Q127 4 86.0 2.5Q45 1 24 0V21Q59 21 73.5 36.0Q88 51 88 93V408Q88 453 74.5 474.5Q61 496 24 496V517Q56 514 86 514Q128 514 164.5 517.5Q201 521 232 528V435Q244 462 264.0 484.0Q284 506 310.0 518.5Q336 531 368 531Z" fill="#F1F5F9" transform="translate(450.528,130.000) scale(0.08200,-0.08200)"/>
<path d="M154 775Q196 775 220.5 754.5Q245 734 245 698Q245 662 220.5 641.5Q196 621 154 621Q112 621 87.5 641.5Q63 662 63 698Q63 734 87.5 754.5Q112 775 154 775ZM232 528V93Q232 51 246.5 36.0Q261 21 296 21V0Q278 1 240.0 2.5Q202 4 163 4Q124 4 84.0 2.5Q44 1 24 0V21Q59 21 73.5 36.0Q88 51 88 93V408Q88 453 74.5 474.5Q61 496 24 496V517Q56 514 86 514Q128 514 164.5 517.5Q201 521 232 528Z" fill="#F1F5F9" transform="translate(488.822,130.000) scale(0.08200,-0.08200)"/>
<path d="M282 531Q355 531 410.0 504.0Q465 477 496.0 417.0Q527 357 527 258Q527 159 496.0 99.5Q465 40 410.0 13.0Q355 -14 282 -14Q211 -14 155.5 13.0Q100 40 68.5 99.5Q37 159 37 258Q37 357 68.5 417.0Q100 477 155.5 504.0Q211 531 282 531ZM282 511Q242 511 215.0 451.5Q188 392 188 258Q188 124 215.0 65.0Q242 6 282 6Q323 6 349.5 65.0Q376 124 376 258Q376 392 349.5 451.5Q323 511 282 511Z" fill="#F1F5F9" transform="translate(514.652,130.000) scale(0.08200,-0.08200)"/>
<path d="M222 531Q264 531 295.5 520.5Q327 510 341 500Q375 477 383 530H404Q402 502 401.0 461.5Q400 421 400 354H379Q374 391 360.0 427.0Q346 463 319.5 486.0Q293 509 251 509Q222 509 202.0 492.5Q182 476 182 445Q182 415 200.0 392.5Q218 370 246.5 349.5Q275 329 306 306Q339 281 366.0 256.5Q393 232 409.0 203.0Q425 174 425 134Q425 89 399.0 55.5Q373 22 330.5 4.0Q288 -14 236 -14Q206 -14 182.5 -8.0Q159 -2 142 7Q129 13 117.5 18.5Q106 24 96 28Q86 31 78.5 21.0Q71 11 67 -7H46Q48 25 49.0 71.0Q50 117 50 193H71Q77 139 93.0 97.5Q109 56 136.5 32.5Q164 9 206 9Q223 9 239.0 16.0Q255 23 265.5 39.0Q276 55 276 80Q276 124 247.5 153.0Q219 182 175 216Q143 242 114.5 267.5Q86 293 68.0 323.5Q50 354 50 393Q50 438 74.0 469.0Q98 500 137.5 515.5Q177 531 222 531Z" fill="#F1F5F9" transform="translate(560.982,130.000) scale(0.08200,-0.08200)"/>
</g>
<g>
<path d="M894 708V688Q862 687 846.0 680.5Q830 674 824.5 656.5Q819 639 819 602V106Q819 70 824.5 52.0Q830 34 846.0 28.0Q862 22 894 20V0Q866 2 823.5 2.5Q781 3 737 3Q689 3 647.0 2.5Q605 2 579 0V20Q613 22 630.5 28.0Q648 34 654.0 52.0Q660 70 660 106V647H667L419 -1H403L133 643V164Q133 109 139.0 79.5Q145 50 165.5 37.5Q186 25 230 20V0Q211 2 180.0 2.5Q149 3 122 3Q99 3 75.0 2.5Q51 2 35 0V20Q67 25 83.0 37.0Q99 49 104.5 76.5Q110 104 110 152V602Q110 639 104.5 656.5Q99 674 82.5 680.5Q66 687 35 688V708Q51 707 75.0 706.0Q99 705 122 705Q165 705 206.5 706.0Q248 707 280 708L490 201L465 178L666 705Q683 705 701.0 705.0Q719 705 737 705Q781 705 823.5 706.0Q866 707 894 708Z" fill="#C9972A" transform="translate(598.866,130.000) scale(0.08200,-0.08200)"/>
<path d="M343 708V688Q311 687 294.5 680.5Q278 674 273.0 656.5Q268 639 268 602V106Q268 70 273.5 52.0Q279 34 295.0 28.0Q311 22 343 20V0Q316 2 275.0 2.5Q234 3 192 3Q143 3 101.5 2.5Q60 2 34 0V20Q66 22 82.0 28.0Q98 34 103.5 52.0Q109 70 109 106V602Q109 639 103.5 656.5Q98 674 81.5 680.5Q65 687 34 688V708Q60 707 101.5 706.0Q143 705 192 705Q234 705 275.0 706.0Q316 707 343 708Z" fill="#C9972A" transform="translate(674.880,130.000) scale(0.08200,-0.08200)"/>
<path d="M397 722Q463 722 505.5 702.5Q548 683 581 657Q601 642 611.5 653.5Q622 665 626 708H649Q647 669 646.0 613.5Q645 558 645 466H622Q617 512 609.0 544.5Q601 577 587.0 602.0Q573 627 547 647Q522 672 489.0 684.0Q456 696 420 696Q366 696 328.0 667.5Q290 639 266.5 590.0Q243 541 232.0 479.5Q221 418 221 352Q221 285 232.5 223.5Q244 162 268.5 114.0Q293 66 332.0 38.0Q371 10 424 10Q457 10 490.5 22.5Q524 35 548 59Q587 89 601.0 133.5Q615 178 622 252H645Q645 157 646.0 98.5Q647 40 649 0H626Q622 43 612.5 54.0Q603 65 581 51Q544 25 502.5 5.5Q461 -14 396 -14Q290 -14 210.5 29.0Q131 72 87.0 153.0Q43 234 43 348Q43 460 88.5 544.0Q134 628 213.5 675.0Q293 722 397 722Z" fill="#C9972A" transform="translate(705.712,130.000) scale(0.08200,-0.08200)"/>
<path d="M368 710 611 84Q625 48 642.5 34.5Q660 21 674 20V0Q644 2 603.5 2.5Q563 3 522 3Q476 3 435.0 2.5Q394 2 370 0V20Q421 22 434.5 37.5Q448 53 428 104L258 569L276 595L124 199Q102 144 97.5 109.0Q93 74 102.5 55.0Q112 36 133.5 28.5Q155 21 185 20V0Q152 2 122.0 2.5Q92 3 61 3Q39 3 19.5 2.5Q0 2 -15 0V20Q6 24 28.0 47.0Q50 70 71 125L299 710Q315 709 333.5 709.0Q352 709 368 710ZM438 288V268H140L150 288Z" fill="#C9972A" transform="translate(763.522,130.000) scale(0.08200,-0.08200)"/>
</g>
<line x1="360" y1="148" x2="780" y2="148" stroke="#C9972A" stroke-width="1.2" opacity="0.55"/>
<g>
<path d="M84 0V730H313Q382 730 433.0 703.5Q484 677 512.5 629.0Q541 581 541 516Q541 443 503.5 389.5Q466 336 402 314L551 0H428L295 300H192V0ZM192 395H313Q367 395 399.0 427.5Q431 460 431 514Q431 570 399.0 602.0Q367 634 313 634H192Z" fill="#A8BCDC" transform="translate(360.000,180.000) scale(0.01300,-0.01300)"/>
<path d="M94 0V730H523V634H200V427H488V332H200V96H523V0Z" fill="#A8BCDC" transform="translate(371.800,180.000) scale(0.01300,-0.01300)"/>
<path d="M303 -10Q229 -10 176.0 14.5Q123 39 94.0 84.5Q65 130 65 193H172Q172 143 207.0 114.5Q242 86 304 86Q362 86 395.0 114.0Q428 142 428 191Q428 232 405.5 262.0Q383 292 341 303L249 330Q169 353 125.5 408.5Q82 464 82 541Q82 601 109.0 646.0Q136 691 186.0 716.0Q236 741 304 741Q404 741 464.5 687.0Q525 633 526 542H418Q418 590 387.5 617.5Q357 645 302 645Q249 645 219.0 619.5Q189 594 189 548Q189 507 211.5 477.0Q234 447 276 435L369 407Q449 385 492.0 329.0Q535 273 535 195Q535 134 506.0 87.5Q477 41 425.0 15.5Q373 -10 303 -10Z" fill="#A8BCDC" transform="translate(383.600,180.000) scale(0.01300,-0.01300)"/>
<path d="M94 0V730H523V634H200V427H488V332H200V96H523V0Z" fill="#A8BCDC" transform="translate(395.400,180.000) scale(0.01300,-0.01300)"/>
<path d="M43 0 229 730H371L557 0H448L404 185H197L153 0ZM217 274H383L333 485Q320 541 311.5 582.5Q303 624 300 639Q297 624 289.0 582.5Q281 541 267 486Z" fill="#A8BCDC" transform="translate(407.200,180.000) scale(0.01300,-0.01300)"/>
<path d="M84 0V730H313Q382 730 433.0 703.5Q484 677 512.5 629.0Q541 581 541 516Q541 443 503.5 389.5Q466 336 402 314L551 0H428L295 300H192V0ZM192 395H313Q367 395 399.0 427.5Q431 460 431 514Q431 570 399.0 602.0Q367 634 313 634H192Z" fill="#A8BCDC" transform="translate(419.000,180.000) scale(0.01300,-0.01300)"/>
<path d="M304 -10Q236 -10 185.5 15.5Q135 41 107.5 89.5Q80 138 80 203V527Q80 593 107.5 641.0Q135 689 185.5 714.5Q236 740 304 740Q372 740 422.0 714.0Q472 688 499.5 640.5Q527 593 527 527H419Q419 584 389.0 614.0Q359 644 304 644Q249 644 218.5 614.0Q188 584 188 528V203Q188 147 218.5 116.5Q249 86 304 86Q359 86 389.0 116.5Q419 147 419 203H527Q527 138 499.5 90.0Q472 42 422.0 16.0Q372 -10 304 -10Z" fill="#A8BCDC" transform="translate(430.800,180.000) scale(0.01300,-0.01300)"/>
<path d="M85 0V730H193V428H407V730H515V0H407V328H193V0Z" fill="#A8BCDC" transform="translate(442.600,180.000) scale(0.01300,-0.01300)"/>
<path d="M231 -10Q145 -10 97.0 37.0Q49 84 49 167V276Q49 336 79.5 375.5Q110 415 166 428L156 419Q125 461 110.0 499.5Q95 538 95 576Q95 625 118.0 662.0Q141 699 183.0 719.5Q225 740 281 740Q340 740 383.5 718.0Q427 696 451.0 657.0Q475 618 475 563H371Q371 590 360.0 609.5Q349 629 329.0 639.0Q309 649 281 649Q256 649 236.5 639.5Q217 630 207.0 612.5Q197 595 197 570Q197 546 208.5 517.0Q220 488 240 460L395 244L458 360H566L456 159L570 0H458L403 76Q331 -10 231 -10ZM239 82Q270 82 298.5 101.0Q327 120 347 154L205 351Q179 345 166.5 325.5Q154 306 154 276V167Q154 127 176.5 104.5Q199 82 239 82Z" fill="#A8BCDC" transform="translate(466.200,180.000) scale(0.01300,-0.01300)"/>
<path d="M98 0V96H245V634H98V730H502V634H355V96H502V0Z" fill="#A8BCDC" transform="translate(489.800,180.000) scale(0.01300,-0.01300)"/>
<path d="M81 0V730H217L430 123Q428 152 425.0 192.0Q422 232 420.5 275.0Q419 318 419 353V730H519V0H383L171 607Q173 581 175.5 542.0Q178 503 179.5 461.0Q181 419 181 383V0Z" fill="#A8BCDC" transform="translate(501.600,180.000) scale(0.01300,-0.01300)"/>
<path d="M81 0V730H217L430 123Q428 152 425.0 192.0Q422 232 420.5 275.0Q419 318 419 353V730H519V0H383L171 607Q173 581 175.5 542.0Q178 503 179.5 461.0Q181 419 181 383V0Z" fill="#A8BCDC" transform="translate(513.400,180.000) scale(0.01300,-0.01300)"/>
<path d="M300 -10Q232 -10 182.5 15.5Q133 41 106.5 89.5Q80 138 80 203V527Q80 593 106.5 641.0Q133 689 182.5 714.5Q232 740 300 740Q368 740 417.5 714.5Q467 689 493.5 641.0Q520 593 520 528V203Q520 138 493.5 89.5Q467 41 417.5 15.5Q368 -10 300 -10ZM300 86Q355 86 383.5 116.5Q412 147 412 203V527Q412 584 383.5 614.0Q355 644 300 644Q246 644 217.0 614.0Q188 584 188 527V203Q188 147 217.0 116.5Q246 86 300 86Z" fill="#A8BCDC" transform="translate(525.200,180.000) scale(0.01300,-0.01300)"/>
<path d="M228 0 43 730H154L271 244Q282 201 290.5 158.5Q299 116 303 92Q307 116 314.5 158.5Q322 201 333 245L449 730H557L371 0Z" fill="#A8BCDC" transform="translate(537.000,180.000) scale(0.01300,-0.01300)"/>
<path d="M43 0 229 730H371L557 0H448L404 185H197L153 0ZM217 274H383L333 485Q320 541 311.5 582.5Q303 624 300 639Q297 624 289.0 582.5Q281 541 267 486Z" fill="#A8BCDC" transform="translate(548.800,180.000) scale(0.01300,-0.01300)"/>
<path d="M246 0V631H51V731H549V631H354V0Z" fill="#A8BCDC" transform="translate(560.600,180.000) scale(0.01300,-0.01300)"/>
<path d="M98 0V96H245V634H98V730H502V634H355V96H502V0Z" fill="#A8BCDC" transform="translate(572.400,180.000) scale(0.01300,-0.01300)"/>
<path d="M300 -10Q232 -10 182.5 15.5Q133 41 106.5 89.5Q80 138 80 203V527Q80 593 106.5 641.0Q133 689 182.5 714.5Q232 740 300 740Q368 740 417.5 714.5Q467 689 493.5 641.0Q520 593 520 528V203Q520 138 493.5 89.5Q467 41 417.5 15.5Q368 -10 300 -10ZM300 86Q355 86 383.5 116.5Q412 147 412 203V527Q412 584 383.5 614.0Q355 644 300 644Q246 644 217.0 614.0Q188 584 188 527V203Q188 147 217.0 116.5Q246 86 300 86Z" fill="#A8BCDC" transform="translate(584.200,180.000) scale(0.01300,-0.01300)"/>
<path d="M81 0V730H217L430 123Q428 152 425.0 192.0Q422 232 420.5 275.0Q419 318 419 353V730H519V0H383L171 607Q173 581 175.5 542.0Q178 503 179.5 461.0Q181 419 181 383V0Z" fill="#A8BCDC" transform="translate(596.000,180.000) scale(0.01300,-0.01300)"/>
<path d="M98 0V96H245V634H98V730H502V634H355V96H502V0Z" fill="#A8BCDC" transform="translate(619.600,180.000) scale(0.01300,-0.01300)"/>
<path d="M81 0V730H217L430 123Q428 152 425.0 192.0Q422 232 420.5 275.0Q419 318 419 353V730H519V0H383L171 607Q173 581 175.5 542.0Q178 503 179.5 461.0Q181 419 181 383V0Z" fill="#A8BCDC" transform="translate(631.400,180.000) scale(0.01300,-0.01300)"/>
<path d="M303 -10Q229 -10 176.0 14.5Q123 39 94.0 84.5Q65 130 65 193H172Q172 143 207.0 114.5Q242 86 304 86Q362 86 395.0 114.0Q428 142 428 191Q428 232 405.5 262.0Q383 292 341 303L249 330Q169 353 125.5 408.5Q82 464 82 541Q82 601 109.0 646.0Q136 691 186.0 716.0Q236 741 304 741Q404 741 464.5 687.0Q525 633 526 542H418Q418 590 387.5 617.5Q357 645 302 645Q249 645 219.0 619.5Q189 594 189 548Q189 507 211.5 477.0Q234 447 276 435L369 407Q449 385 492.0 329.0Q535 273 535 195Q535 134 506.0 87.5Q477 41 425.0 15.5Q373 -10 303 -10Z" fill="#A8BCDC" transform="translate(643.200,180.000) scale(0.01300,-0.01300)"/>
<path d="M246 0V631H51V731H549V631H354V0Z" fill="#A8BCDC" transform="translate(655.000,180.000) scale(0.01300,-0.01300)"/>
<path d="M98 0V96H245V634H98V730H502V634H355V96H502V0Z" fill="#A8BCDC" transform="translate(666.800,180.000) scale(0.01300,-0.01300)"/>
<path d="M246 0V631H51V731H549V631H354V0Z" fill="#A8BCDC" transform="translate(678.600,180.000) scale(0.01300,-0.01300)"/>
<path d="M300 -10Q195 -10 138.0 47.5Q81 105 81 204V730H189V204Q189 149 216.5 117.0Q244 85 300 85Q355 85 383.0 117.0Q411 149 411 204V730H519V204Q519 105 462.0 47.5Q405 -10 300 -10Z" fill="#A8BCDC" transform="translate(690.400,180.000) scale(0.01300,-0.01300)"/>
<path d="M246 0V631H51V731H549V631H354V0Z" fill="#A8BCDC" transform="translate(702.200,180.000) scale(0.01300,-0.01300)"/>
<path d="M94 0V730H523V634H200V427H488V332H200V96H523V0Z" fill="#A8BCDC" transform="translate(714.000,180.000) scale(0.01300,-0.01300)"/>
</g>
<g>
<path d="M757 705H815Q854 705 890.0 706.0Q926 707 952 708L947 688Q913 687 894.0 680.5Q875 674 864.5 656.5Q854 639 844 602L712 106Q703 70 704.5 52.0Q706 34 722.0 28.0Q738 22 771 20L767 0Q741 2 705.5 2.5Q670 3 631 3Q589 3 551.5 2.5Q514 2 491 0L495 20Q530 22 548.5 28.0Q567 34 578.0 52.0Q589 70 598 106L743 645L328 -5H306L234 638L97 120Q89 86 89.5 64.0Q90 42 108.5 32.0Q127 22 167 20L162 0Q151 1 132.5 1.5Q114 2 94.5 2.5Q75 3 58 3Q32 3 6.0 2.5Q-20 2 -37 0L-32 20Q3 22 22.5 32.0Q42 42 54.0 64.0Q66 86 74 120L203 602Q213 639 211.0 656.5Q209 674 193.5 680.5Q178 687 144 688L149 708Q168 707 195.5 706.0Q223 705 254 705Q278 705 302.0 706.0Q326 707 343 708L399 142Z" fill="#C9972A" transform="translate(360.000,222.000) scale(0.01900,-0.01900)"/>
<path d="M146 25Q168 25 195.0 51.0Q222 77 250.0 122.5Q278 168 302.0 228.0Q326 288 342 356L324 247Q290 152 254.5 94.5Q219 37 182.0 11.5Q145 -14 106 -14Q56 -14 31.0 19.5Q6 53 6 108Q6 158 22.5 215.0Q39 272 68.5 328.0Q98 384 136.0 429.0Q174 474 218.0 501.5Q262 529 306 529Q340 529 358.5 497.5Q377 466 367 406L356 400Q363 447 350.5 475.5Q338 504 310 504Q286 504 259.0 479.5Q232 455 206.5 412.5Q181 370 159.5 317.0Q138 264 126.0 207.5Q114 151 114 97Q114 57 122.5 41.0Q131 25 146 25ZM385 515Q415 516 443.0 519.0Q471 522 495 529L368 86Q365 75 362.5 61.5Q360 48 363.5 38.0Q367 28 382 28Q400 28 418.0 47.5Q436 67 454 122L468 163H487L462 90Q448 49 428.0 27.0Q408 5 385.5 -4.5Q363 -14 342 -14Q298 -14 280 14Q267 36 271.5 67.5Q276 99 285 133Z" fill="#C9972A" transform="translate(376.796,222.000) scale(0.01900,-0.01900)"/>
<path d="M384 515 381 495H58L63 515ZM135 85Q127 54 139.0 40.5Q151 27 171 27Q193 27 215.0 46.5Q237 66 257 122L271 162H290L269 101Q248 37 212.0 11.5Q176 -14 128 -14Q85 -14 62.5 4.5Q40 23 36.0 56.5Q32 90 44 132L197 666Q227 667 254.5 670.0Q282 673 305 680Z" fill="#C9972A" transform="translate(386.961,222.000) scale(0.01900,-0.01900)"/>
<path d="M133 0H28L148 430Q157 462 154.0 475.0Q151 488 135 488Q115 488 98.0 467.0Q81 446 62 394L47 352H28L53 426Q68 467 89.0 489.0Q110 511 133.5 520.0Q157 529 180 529Q211 529 225.0 516.0Q239 503 242.0 482.0Q245 461 241.5 436.5Q238 412 232 389ZM389 505Q367 505 343.0 486.5Q319 468 294.0 431.0Q269 394 243.5 338.0Q218 282 192.5 207.5Q167 133 142 39L166 169Q198 271 226.0 340.0Q254 409 281.5 450.5Q309 492 338.5 510.5Q368 529 402 529Q434 529 451.5 510.5Q469 492 469 464Q469 441 458.0 422.5Q447 404 429.5 392.5Q412 381 390 381Q369 381 356.0 392.5Q343 404 343 425Q343 444 351.0 459.0Q359 474 372.0 485.0Q385 496 401 501Q399 503 396.0 504.0Q393 505 389 505Z" fill="#C9972A" transform="translate(393.459,222.000) scale(0.01900,-0.01900)"/>
<path d="M185 692Q189 724 213.0 744.0Q237 764 268 764Q297 764 313.5 745.5Q330 727 326 700Q322 669 297.5 648.5Q273 628 242 628Q213 628 197.0 646.5Q181 665 185 692ZM152 430Q171 488 139 488Q117 488 100.0 465.5Q83 443 65 394L49 352H30L56 426Q71 467 92.0 489.0Q113 511 137.5 520.0Q162 529 185 529Q218 529 235.0 516.0Q252 503 256.0 482.0Q260 461 256.0 436.5Q252 412 244 389L138 85Q128 57 132.0 42.0Q136 27 153 27Q171 27 188.0 46.5Q205 66 226 121L242 162H261L235 89Q221 49 200.0 27.0Q179 5 155.5 -4.5Q132 -14 108 -14Q65 -14 47.5 5.5Q30 25 32.0 58.5Q34 92 48 132Z" fill="#C9972A" transform="translate(401.838,222.000) scale(0.01900,-0.01900)"/>
<path d="M337 80Q341 54 349.5 44.0Q358 34 371 34Q385 34 400.5 51.0Q416 68 436 124L449 161H468L443 88Q429 47 409.0 25.0Q389 3 367.0 -5.5Q345 -14 322 -14Q287 -14 261.5 6.5Q236 27 230 80L190 435Q186 461 177.0 470.5Q168 480 155 480Q146 480 136.0 473.5Q126 467 115.0 447.5Q104 428 91 391L78 354H59L84 427Q99 468 118.0 490.0Q137 512 160.0 520.5Q183 529 206 529Q245 529 268.0 509.0Q291 489 297 432ZM409 465Q380 437 358.5 400.5Q337 364 322.0 327.0Q307 290 296 260Q296 260 286.0 260.5Q276 261 276 261Q282 279 290.5 303.0Q299 327 312.0 354.5Q325 382 343.0 411.5Q361 441 384 468Q413 502 437.5 515.5Q462 529 487 529Q511 529 526.0 516.5Q541 504 541 482Q541 459 524.5 442.5Q508 426 481 426Q457 426 438.0 437.0Q419 448 409 465ZM95 50Q139 93 172.0 150.0Q205 207 222 255Q222 255 231.0 253.5Q240 252 240 252Q230 224 215.0 190.5Q200 157 177.5 120.5Q155 84 122 48Q93 16 67.5 1.0Q42 -14 18 -14Q-8 -14 -22.0 -1.5Q-36 11 -36 32Q-36 56 -18.5 72.5Q-1 89 24 89Q50 89 67.0 77.0Q84 65 95 50Z" fill="#C9972A" transform="translate(407.709,222.000) scale(0.01900,-0.01900)"/>
<path d="M313 509Q284 509 256.0 483.0Q228 457 203.5 412.5Q179 368 160.0 313.0Q141 258 130.5 199.0Q120 140 120 87Q120 45 132.5 25.5Q145 6 169 6Q198 6 226.0 32.0Q254 58 279.0 102.0Q304 146 322.5 200.5Q341 255 351.5 314.0Q362 373 362 428Q362 472 350.0 490.5Q338 509 313 509ZM18 146Q18 190 30.0 242.0Q42 294 67.0 345.0Q92 396 127.5 437.5Q163 479 211.5 504.0Q260 529 319 529Q386 529 425.0 489.5Q464 450 464 369Q464 325 452.0 273.0Q440 221 415.0 170.0Q390 119 354.5 77.5Q319 36 270.5 11.0Q222 -14 163 -14Q96 -14 57.0 26.0Q18 66 18 146Z" fill="#C9972A" transform="translate(422.776,222.000) scale(0.01900,-0.01900)"/>
<path d="M63 495 69 515H376L370 495ZM399 766Q381 766 367.5 759.0Q354 752 343 742Q327 727 314.5 696.5Q302 666 291.0 626.5Q280 587 269 541L77 -174Q47 -175 20.0 -178.0Q-7 -181 -32 -188L156 513Q177 594 202.5 647.5Q228 701 263 733Q288 756 322.5 769.0Q357 782 394 782Q445 782 473.0 759.5Q501 737 501 703Q501 685 491.0 667.5Q481 650 464.5 639.0Q448 628 426 628Q403 628 390.0 638.5Q377 649 378 668Q378 696 395.5 716.5Q413 737 441 746Q440 753 428.5 759.5Q417 766 399 766Z" fill="#C9972A" transform="translate(432.314,222.000) scale(0.01900,-0.01900)"/>
<path d="M185 106Q176 70 177.0 52.0Q178 34 194.0 28.0Q210 22 244 20L240 0Q215 2 177.5 2.5Q140 3 101 3Q59 3 23.5 2.5Q-12 2 -36 0L-31 20Q2 22 20.5 28.0Q39 34 50.0 52.0Q61 70 70 106L202 602Q212 639 210.0 656.5Q208 674 192.5 680.5Q177 687 143 688L148 708Q170 707 206.5 706.0Q243 705 285 705Q324 705 361.5 706.0Q399 707 425 708L420 688Q386 687 367.0 680.5Q348 674 337.5 656.5Q327 639 317 602Z" fill="#C9972A" transform="translate(443.372,222.000) scale(0.01900,-0.01900)"/>
<path d="M134 0H29L149 430Q153 443 155.5 456.5Q158 470 154.0 479.0Q150 488 135 488Q115 488 98.5 468.0Q82 448 63 394L48 352H29L54 426Q76 487 108.5 508.0Q141 529 177 529Q209 529 224.0 516.0Q239 503 242.5 482.5Q246 462 242.5 437.5Q239 413 233 389ZM175 195Q211 291 244.5 355.5Q278 420 310.0 458.0Q342 496 375.5 512.5Q409 529 446 529Q494 529 512.5 507.0Q531 485 529.5 450.5Q528 416 516 378L419 85Q409 58 412.0 42.5Q415 27 434 27Q451 27 468.5 46.0Q486 65 506 121L521 162H540L515 89Q501 47 479.5 25.0Q458 3 434.5 -5.5Q411 -14 389 -14Q364 -14 347.0 -6.0Q330 2 321 16Q309 35 312.0 64.5Q315 94 328 132L421 413Q426 428 429.0 446.0Q432 464 428.0 477.5Q424 491 403 491Q381 491 355.0 469.0Q329 447 300.5 406.5Q272 366 245.0 311.0Q218 256 193.0 191.5Q168 127 147 55Z" fill="#C9972A" transform="translate(450.155,222.000) scale(0.01900,-0.01900)"/>
<path d="M384 515 381 495H58L63 515ZM135 85Q127 54 139.0 40.5Q151 27 171 27Q193 27 215.0 46.5Q237 66 257 122L271 162H290L269 101Q248 37 212.0 11.5Q176 -14 128 -14Q85 -14 62.5 4.5Q40 23 36.0 56.5Q32 90 44 132L197 666Q227 667 254.5 670.0Q282 673 305 680Z" fill="#C9972A" transform="translate(461.327,222.000) scale(0.01900,-0.01900)"/>
<path d="M133 0H28L148 430Q157 462 154.0 475.0Q151 488 135 488Q115 488 98.0 467.0Q81 446 62 394L47 352H28L53 426Q68 467 89.0 489.0Q110 511 133.5 520.0Q157 529 180 529Q211 529 225.0 516.0Q239 503 242.0 482.0Q245 461 241.5 436.5Q238 412 232 389ZM389 505Q367 505 343.0 486.5Q319 468 294.0 431.0Q269 394 243.5 338.0Q218 282 192.5 207.5Q167 133 142 39L166 169Q198 271 226.0 340.0Q254 409 281.5 450.5Q309 492 338.5 510.5Q368 529 402 529Q434 529 451.5 510.5Q469 492 469 464Q469 441 458.0 422.5Q447 404 429.5 392.5Q412 381 390 381Q369 381 356.0 392.5Q343 404 343 425Q343 444 351.0 459.0Q359 474 372.0 485.0Q385 496 401 501Q399 503 396.0 504.0Q393 505 389 505Z" fill="#C9972A" transform="translate(467.825,222.000) scale(0.01900,-0.01900)"/>
<path d="M185 692Q189 724 213.0 744.0Q237 764 268 764Q297 764 313.5 745.5Q330 727 326 700Q322 669 297.5 648.5Q273 628 242 628Q213 628 197.0 646.5Q181 665 185 692ZM152 430Q171 488 139 488Q117 488 100.0 465.5Q83 443 65 394L49 352H30L56 426Q71 467 92.0 489.0Q113 511 137.5 520.0Q162 529 185 529Q218 529 235.0 516.0Q252 503 256.0 482.0Q260 461 256.0 436.5Q252 412 244 389L138 85Q128 57 132.0 42.0Q136 27 153 27Q171 27 188.0 46.5Q205 66 226 121L242 162H261L235 89Q221 49 200.0 27.0Q179 5 155.5 -4.5Q132 -14 108 -14Q65 -14 47.5 5.5Q30 25 32.0 58.5Q34 92 48 132Z" fill="#C9972A" transform="translate(476.204,222.000) scale(0.01900,-0.01900)"/>
<path d="M335 509Q297 509 260.0 478.0Q223 447 193.0 393.0Q163 339 145.0 271.0Q127 203 127 129Q127 78 147.0 55.0Q167 32 199 32Q233 32 269.5 53.0Q306 74 343 128L363 120Q343 87 312.0 56.0Q281 25 241.5 5.5Q202 -14 156 -14Q93 -14 54.0 23.0Q15 60 15 135Q15 182 29.0 236.0Q43 290 69.5 342.0Q96 394 135.0 436.0Q174 478 223.0 503.5Q272 529 330 529Q377 529 409.5 505.0Q442 481 442 440Q442 419 432.0 398.0Q422 377 404.0 363.5Q386 350 362 350Q340 350 328.0 363.0Q316 376 316 395Q316 428 340.5 451.5Q365 475 396 482Q387 494 372.5 501.5Q358 509 335 509Z" fill="#C9972A" transform="translate(482.075,222.000) scale(0.01900,-0.01900)"/>
<path d="M146 25Q168 25 195.0 51.0Q222 77 250.0 122.5Q278 168 302.0 228.0Q326 288 342 356L324 247Q290 152 254.5 94.5Q219 37 182.0 11.5Q145 -14 106 -14Q56 -14 31.0 19.5Q6 53 6 108Q6 158 22.5 215.0Q39 272 68.5 328.0Q98 384 136.0 429.0Q174 474 218.0 501.5Q262 529 306 529Q340 529 358.5 497.5Q377 466 367 406L356 400Q363 447 350.5 475.5Q338 504 310 504Q286 504 259.0 479.5Q232 455 206.5 412.5Q181 370 159.5 317.0Q138 264 126.0 207.5Q114 151 114 97Q114 57 122.5 41.0Q131 25 146 25ZM385 515Q415 516 443.0 519.0Q471 522 495 529L368 86Q365 75 362.5 61.5Q360 48 363.5 38.0Q367 28 382 28Q400 28 418.0 47.5Q436 67 454 122L468 163H487L462 90Q448 49 428.0 27.0Q408 5 385.5 -4.5Q363 -14 342 -14Q298 -14 280 14Q267 36 271.5 67.5Q276 99 285 133Z" fill="#C9972A" transform="translate(490.473,222.000) scale(0.01900,-0.01900)"/>
<path d="M384 515 381 495H58L63 515ZM135 85Q127 54 139.0 40.5Q151 27 171 27Q193 27 215.0 46.5Q237 66 257 122L271 162H290L269 101Q248 37 212.0 11.5Q176 -14 128 -14Q85 -14 62.5 4.5Q40 23 36.0 56.5Q32 90 44 132L197 666Q227 667 254.5 670.0Q282 673 305 680Z" fill="#C9972A" transform="translate(500.638,222.000) scale(0.01900,-0.01900)"/>
<path d="M185 692Q189 724 213.0 744.0Q237 764 268 764Q297 764 313.5 745.5Q330 727 326 700Q322 669 297.5 648.5Q273 628 242 628Q213 628 197.0 646.5Q181 665 185 692ZM152 430Q171 488 139 488Q117 488 100.0 465.5Q83 443 65 394L49 352H30L56 426Q71 467 92.0 489.0Q113 511 137.5 520.0Q162 529 185 529Q218 529 235.0 516.0Q252 503 256.0 482.0Q260 461 256.0 436.5Q252 412 244 389L138 85Q128 57 132.0 42.0Q136 27 153 27Q171 27 188.0 46.5Q205 66 226 121L242 162H261L235 89Q221 49 200.0 27.0Q179 5 155.5 -4.5Q132 -14 108 -14Q65 -14 47.5 5.5Q30 25 32.0 58.5Q34 92 48 132Z" fill="#C9972A" transform="translate(507.136,222.000) scale(0.01900,-0.01900)"/>
<path d="M313 509Q284 509 256.0 483.0Q228 457 203.5 412.5Q179 368 160.0 313.0Q141 258 130.5 199.0Q120 140 120 87Q120 45 132.5 25.5Q145 6 169 6Q198 6 226.0 32.0Q254 58 279.0 102.0Q304 146 322.5 200.5Q341 255 351.5 314.0Q362 373 362 428Q362 472 350.0 490.5Q338 509 313 509ZM18 146Q18 190 30.0 242.0Q42 294 67.0 345.0Q92 396 127.5 437.5Q163 479 211.5 504.0Q260 529 319 529Q386 529 425.0 489.5Q464 450 464 369Q464 325 452.0 273.0Q440 221 415.0 170.0Q390 119 354.5 77.5Q319 36 270.5 11.0Q222 -14 163 -14Q96 -14 57.0 26.0Q18 66 18 146Z" fill="#C9972A" transform="translate(513.007,222.000) scale(0.01900,-0.01900)"/>
<path d="M134 0H29L149 430Q153 443 155.5 456.5Q158 470 154.0 479.0Q150 488 135 488Q115 488 98.5 468.0Q82 448 63 394L48 352H29L54 426Q76 487 108.5 508.0Q141 529 177 529Q209 529 224.0 516.0Q239 503 242.5 482.5Q246 462 242.5 437.5Q239 413 233 389ZM175 195Q211 291 244.5 355.5Q278 420 310.0 458.0Q342 496 375.5 512.5Q409 529 446 529Q494 529 512.5 507.0Q531 485 529.5 450.5Q528 416 516 378L419 85Q409 58 412.0 42.5Q415 27 434 27Q451 27 468.5 46.0Q486 65 506 121L521 162H540L515 89Q501 47 479.5 25.0Q458 3 434.5 -5.5Q411 -14 389 -14Q364 -14 347.0 -6.0Q330 2 321 16Q309 35 312.0 64.5Q315 94 328 132L421 413Q426 428 429.0 446.0Q432 464 428.0 477.5Q424 491 403 491Q381 491 355.0 469.0Q329 447 300.5 406.5Q272 366 245.0 311.0Q218 256 193.0 191.5Q168 127 147 55Z" fill="#C9972A" transform="translate(522.545,222.000) scale(0.01900,-0.01900)"/>
<path d="M723 708Q708 669 692.0 613.5Q676 558 659 478H637Q645 530 643.5 566.0Q642 602 628 628Q609 665 575.0 683.5Q541 702 501 702Q450 702 402.0 672.5Q354 643 313.0 592.5Q272 542 240.5 478.0Q209 414 191.5 343.5Q174 273 174 205Q174 105 212.0 56.5Q250 8 315 8Q355 8 401.5 27.0Q448 46 483 82Q510 109 529.5 145.5Q549 182 573 240H595Q570 149 556.5 93.5Q543 38 536 0H514Q517 21 517 34Q517 56 509.0 59.0Q501 62 484 51Q457 33 429.5 18.5Q402 4 369.0 -5.0Q336 -14 293 -14Q174 -14 111.0 47.0Q48 108 48 225Q48 294 69.5 364.5Q91 435 131.5 499.0Q172 563 227.5 613.0Q283 663 351.5 692.5Q420 722 498 722Q541 722 568.0 712.5Q595 703 613.5 688.5Q632 674 647 657Q661 643 673.5 654.0Q686 665 702 708Z" fill="#C9972A" transform="translate(538.543,222.000) scale(0.01900,-0.01900)"/>
<path d="M313 509Q284 509 256.0 483.0Q228 457 203.5 412.5Q179 368 160.0 313.0Q141 258 130.5 199.0Q120 140 120 87Q120 45 132.5 25.5Q145 6 169 6Q198 6 226.0 32.0Q254 58 279.0 102.0Q304 146 322.5 200.5Q341 255 351.5 314.0Q362 373 362 428Q362 472 350.0 490.5Q338 509 313 509ZM18 146Q18 190 30.0 242.0Q42 294 67.0 345.0Q92 396 127.5 437.5Q163 479 211.5 504.0Q260 529 319 529Q386 529 425.0 489.5Q464 450 464 369Q464 325 452.0 273.0Q440 221 415.0 170.0Q390 119 354.5 77.5Q319 36 270.5 11.0Q222 -14 163 -14Q96 -14 57.0 26.0Q18 66 18 146Z" fill="#C9972A" transform="translate(551.425,222.000) scale(0.01900,-0.01900)"/>
<path d="M313 509Q284 509 256.0 483.0Q228 457 203.5 412.5Q179 368 160.0 313.0Q141 258 130.5 199.0Q120 140 120 87Q120 45 132.5 25.5Q145 6 169 6Q198 6 226.0 32.0Q254 58 279.0 102.0Q304 146 322.5 200.5Q341 255 351.5 314.0Q362 373 362 428Q362 472 350.0 490.5Q338 509 313 509ZM18 146Q18 190 30.0 242.0Q42 294 67.0 345.0Q92 396 127.5 437.5Q163 479 211.5 504.0Q260 529 319 529Q386 529 425.0 489.5Q464 450 464 369Q464 325 452.0 273.0Q440 221 415.0 170.0Q390 119 354.5 77.5Q319 36 270.5 11.0Q222 -14 163 -14Q96 -14 57.0 26.0Q18 66 18 146Z" fill="#C9972A" transform="translate(560.963,222.000) scale(0.01900,-0.01900)"/>
<path d="M133 0H28L148 430Q157 462 154.0 475.0Q151 488 135 488Q115 488 98.0 467.0Q81 446 62 394L47 352H28L53 426Q68 467 89.0 489.0Q110 511 133.5 520.0Q157 529 180 529Q211 529 225.0 516.0Q239 503 242.0 482.0Q245 461 241.5 436.5Q238 412 232 389ZM389 505Q367 505 343.0 486.5Q319 468 294.0 431.0Q269 394 243.5 338.0Q218 282 192.5 207.5Q167 133 142 39L166 169Q198 271 226.0 340.0Q254 409 281.5 450.5Q309 492 338.5 510.5Q368 529 402 529Q434 529 451.5 510.5Q469 492 469 464Q469 441 458.0 422.5Q447 404 429.5 392.5Q412 381 390 381Q369 381 356.0 392.5Q343 404 343 425Q343 444 351.0 459.0Q359 474 372.0 485.0Q385 496 401 501Q399 503 396.0 504.0Q393 505 389 505Z" fill="#C9972A" transform="translate(570.501,222.000) scale(0.01900,-0.01900)"/>
<path d="M387 85Q380 62 382.5 44.5Q385 27 404 27Q422 27 438.5 47.0Q455 67 473 121L487 162H506L482 89Q470 49 449.5 26.5Q429 4 405.5 -5.0Q382 -14 361 -14Q300 -14 293 39Q289 56 291.5 79.5Q294 103 303 132L445 667Q454 701 442.0 717.0Q430 733 381 733L387 754Q448 755 494.5 765.5Q541 776 583 795ZM158 24Q180 24 209.0 51.0Q238 78 268.0 126.0Q298 174 324.5 238.5Q351 303 368 376L353 268Q316 167 279.5 105.0Q243 43 204.0 14.5Q165 -14 118 -14Q87 -14 62.0 0.5Q37 15 23.0 44.5Q9 74 9 121Q9 168 24.5 223.0Q40 278 68.5 332.0Q97 386 137.5 430.5Q178 475 228.0 502.0Q278 529 336 529Q362 529 380.5 512.5Q399 496 401 464L393 444Q389 477 375.0 491.5Q361 506 341 506Q307 506 274.0 481.0Q241 456 213.0 413.5Q185 371 163.5 319.0Q142 267 130.0 211.5Q118 156 118 105Q118 64 128.0 44.0Q138 24 158 24Z" fill="#C9972A" transform="translate(578.880,222.000) scale(0.01900,-0.01900)"/>
<path d="M185 692Q189 724 213.0 744.0Q237 764 268 764Q297 764 313.5 745.5Q330 727 326 700Q322 669 297.5 648.5Q273 628 242 628Q213 628 197.0 646.5Q181 665 185 692ZM152 430Q171 488 139 488Q117 488 100.0 465.5Q83 443 65 394L49 352H30L56 426Q71 467 92.0 489.0Q113 511 137.5 520.0Q162 529 185 529Q218 529 235.0 516.0Q252 503 256.0 482.0Q260 461 256.0 436.5Q252 412 244 389L138 85Q128 57 132.0 42.0Q136 27 153 27Q171 27 188.0 46.5Q205 66 226 121L242 162H261L235 89Q221 49 200.0 27.0Q179 5 155.5 -4.5Q132 -14 108 -14Q65 -14 47.5 5.5Q30 25 32.0 58.5Q34 92 48 132Z" fill="#C9972A" transform="translate(589.406,222.000) scale(0.01900,-0.01900)"/>
<path d="M134 0H29L149 430Q153 443 155.5 456.5Q158 470 154.0 479.0Q150 488 135 488Q115 488 98.5 468.0Q82 448 63 394L48 352H29L54 426Q76 487 108.5 508.0Q141 529 177 529Q209 529 224.0 516.0Q239 503 242.5 482.5Q246 462 242.5 437.5Q239 413 233 389ZM175 195Q211 291 244.5 355.5Q278 420 310.0 458.0Q342 496 375.5 512.5Q409 529 446 529Q494 529 512.5 507.0Q531 485 529.5 450.5Q528 416 516 378L419 85Q409 58 412.0 42.5Q415 27 434 27Q451 27 468.5 46.0Q486 65 506 121L521 162H540L515 89Q501 47 479.5 25.0Q458 3 434.5 -5.5Q411 -14 389 -14Q364 -14 347.0 -6.0Q330 2 321 16Q309 35 312.0 64.5Q315 94 328 132L421 413Q426 428 429.0 446.0Q432 464 428.0 477.5Q424 491 403 491Q381 491 355.0 469.0Q329 447 300.5 406.5Q272 366 245.0 311.0Q218 256 193.0 191.5Q168 127 147 55Z" fill="#C9972A" transform="translate(595.277,222.000) scale(0.01900,-0.01900)"/>
<path d="M146 25Q168 25 195.0 51.0Q222 77 250.0 122.5Q278 168 302.0 228.0Q326 288 342 356L324 247Q290 152 254.5 94.5Q219 37 182.0 11.5Q145 -14 106 -14Q56 -14 31.0 19.5Q6 53 6 108Q6 158 22.5 215.0Q39 272 68.5 328.0Q98 384 136.0 429.0Q174 474 218.0 501.5Q262 529 306 529Q340 529 358.5 497.5Q377 466 367 406L356 400Q363 447 350.5 475.5Q338 504 310 504Q286 504 259.0 479.5Q232 455 206.5 412.5Q181 370 159.5 317.0Q138 264 126.0 207.5Q114 151 114 97Q114 57 122.5 41.0Q131 25 146 25ZM385 515Q415 516 443.0 519.0Q471 522 495 529L368 86Q365 75 362.5 61.5Q360 48 363.5 38.0Q367 28 382 28Q400 28 418.0 47.5Q436 67 454 122L468 163H487L462 90Q448 49 428.0 27.0Q408 5 385.5 -4.5Q363 -14 342 -14Q298 -14 280 14Q267 36 271.5 67.5Q276 99 285 133Z" fill="#C9972A" transform="translate(606.449,222.000) scale(0.01900,-0.01900)"/>
<path d="M384 515 381 495H58L63 515ZM135 85Q127 54 139.0 40.5Q151 27 171 27Q193 27 215.0 46.5Q237 66 257 122L271 162H290L269 101Q248 37 212.0 11.5Q176 -14 128 -14Q85 -14 62.5 4.5Q40 23 36.0 56.5Q32 90 44 132L197 666Q227 667 254.5 670.0Q282 673 305 680Z" fill="#C9972A" transform="translate(616.614,222.000) scale(0.01900,-0.01900)"/>
<path d="M100 224Q151 242 193.5 261.0Q236 280 263 302Q300 333 321.5 375.5Q343 418 343 469Q343 495 339.0 502.5Q335 510 327 510Q303 510 275.5 488.0Q248 466 221.0 427.5Q194 389 171.5 340.5Q149 292 135.5 237.5Q122 183 122 130Q122 78 141.5 56.0Q161 34 193 34Q226 34 266.0 54.5Q306 75 345 128L361 120Q341 87 309.0 56.0Q277 25 236.5 5.5Q196 -14 149 -14Q108 -14 76.0 2.0Q44 18 26.5 49.5Q9 81 9 127Q9 173 25.5 227.5Q42 282 72.5 335.0Q103 388 145.0 432.5Q187 477 239.0 503.0Q291 529 349 529Q385 529 409.0 511.5Q433 494 433 459Q433 419 410.5 384.5Q388 350 350.0 322.0Q312 294 267.5 272.0Q223 250 178.5 234.0Q134 218 99 208Z" fill="#C9972A" transform="translate(623.112,222.000) scale(0.01900,-0.01900)"/>
<path d="M387 85Q380 62 382.5 44.5Q385 27 404 27Q422 27 438.5 47.0Q455 67 473 121L487 162H506L482 89Q470 49 449.5 26.5Q429 4 405.5 -5.0Q382 -14 361 -14Q300 -14 293 39Q289 56 291.5 79.5Q294 103 303 132L445 667Q454 701 442.0 717.0Q430 733 381 733L387 754Q448 755 494.5 765.5Q541 776 583 795ZM158 24Q180 24 209.0 51.0Q238 78 268.0 126.0Q298 174 324.5 238.5Q351 303 368 376L353 268Q316 167 279.5 105.0Q243 43 204.0 14.5Q165 -14 118 -14Q87 -14 62.0 0.5Q37 15 23.0 44.5Q9 74 9 121Q9 168 24.5 223.0Q40 278 68.5 332.0Q97 386 137.5 430.5Q178 475 228.0 502.0Q278 529 336 529Q362 529 380.5 512.5Q399 496 401 464L393 444Q389 477 375.0 491.5Q361 506 341 506Q307 506 274.0 481.0Q241 456 213.0 413.5Q185 371 163.5 319.0Q142 267 130.0 211.5Q118 156 118 105Q118 64 128.0 44.0Q138 24 158 24Z" fill="#C9972A" transform="translate(631.510,222.000) scale(0.01900,-0.01900)"/>
<path d="M335 490Q311 490 281.5 457.0Q252 424 221.5 368.0Q191 312 164.5 241.0Q138 170 120 94L137 200Q177 319 215.0 391.0Q253 463 291.5 496.0Q330 529 373 529Q424 529 453.5 492.5Q483 456 483 384Q483 338 470.5 284.5Q458 231 433.0 178.5Q408 126 371.5 82.0Q335 38 288.0 12.0Q241 -14 184 -14Q155 -14 131.5 2.0Q108 18 99 47L107 66Q120 36 136.0 23.5Q152 11 174 11Q207 11 237.0 37.0Q267 63 292.5 106.5Q318 150 337.0 203.0Q356 256 366.5 309.5Q377 363 377 409Q377 451 366.0 470.5Q355 490 335 490ZM111 51Q84 38 55.5 20.5Q27 3 0 -16L-15 -9Q-8 5 -3.5 19.5Q1 34 4 49L181 667Q190 701 178.5 717.0Q167 733 118 733L124 754Q184 755 230.5 765.5Q277 776 318 795Z" fill="#C9972A" transform="translate(646.862,222.000) scale(0.01900,-0.01900)"/>
<path d="M291 47 211 -42 133 428Q128 458 122.0 469.5Q116 481 103 481Q93 481 80.0 464.5Q67 448 48 395L34 354H15L40 427Q61 488 92.0 508.5Q123 529 157 529Q192 529 211.5 508.5Q231 488 239 432ZM65 -140Q110 -117 159.0 -77.5Q208 -38 260 29Q318 102 364.0 191.0Q410 280 430 368Q411 379 391.5 394.5Q372 410 359.5 430.0Q347 450 348 475Q350 501 365.0 515.0Q380 529 405 529Q434 529 447.5 507.5Q461 486 461 445Q461 395 444.5 337.5Q428 280 399.5 220.0Q371 160 336.0 104.5Q301 49 264 3Q243 -23 211.5 -54.5Q180 -86 140.5 -116.0Q101 -146 53 -166Q26 -178 5.5 -183.0Q-15 -188 -28 -188Q-52 -188 -68.5 -176.0Q-85 -164 -85 -142Q-85 -119 -67.5 -105.0Q-50 -91 -26 -91Q0 -91 22.5 -105.5Q45 -120 65 -140Z" fill="#C9972A" transform="translate(656.704,222.000) scale(0.01900,-0.01900)"/>
<path d="M73 156Q38 107 33.0 77.5Q28 48 48.0 34.5Q68 21 109 20L104 0Q71 2 41.0 2.5Q11 3 -16 3Q-40 3 -56.5 2.5Q-73 2 -89 0L-84 20Q-69 24 -53.5 34.0Q-38 44 -19.5 63.0Q-1 82 20 113L447 713Q454 713 460.5 713.0Q467 713 474 713L514 84Q517 48 532.5 34.5Q548 21 563 20L559 0Q537 2 503.0 2.5Q469 3 438 3Q399 3 364.0 2.5Q329 2 308 0L312 20Q360 22 380.0 37.5Q400 53 398 104L372 587L388 600ZM158 288H450L442 268H140Z" fill="#C9972A" transform="translate(670.669,222.000) scale(0.01900,-0.01900)"/>
<path d="M133 0H28L148 430Q152 440 153.5 453.5Q155 467 152.0 477.5Q149 488 135 488Q114 488 97.0 466.5Q80 445 62 394L47 352H28L53 426Q68 467 89.0 489.0Q110 511 133.5 520.0Q157 529 179 529Q210 529 225.0 516.0Q240 503 243.0 481.5Q246 460 242.0 436.0Q238 412 232 389ZM402 413Q408 433 410.5 450.0Q413 467 408.5 478.0Q404 489 387 489Q361 489 330.0 457.0Q299 425 267.0 367.0Q235 309 204.5 232.0Q174 155 149 65L173 195Q218 319 258.0 392.5Q298 466 340.0 497.5Q382 529 432 529Q465 529 480.5 515.5Q496 502 500.0 479.5Q504 457 500.0 430.5Q496 404 489 378L386 0H278ZM658 413Q667 442 667.0 465.5Q667 489 648 489Q621 489 591.0 458.0Q561 427 528.5 368.0Q496 309 463.0 227.0Q430 145 398 43L414 147Q452 254 485.0 327.5Q518 401 550.5 445.5Q583 490 617.5 509.5Q652 529 693 529Q735 529 751.5 506.0Q768 483 766.5 449.0Q765 415 753 378L655 85Q645 55 649.0 41.0Q653 27 670 27Q687 27 705.0 46.0Q723 65 743 121L757 162H776L751 89Q737 47 716.0 25.0Q695 3 671.5 -5.5Q648 -14 626 -14Q599 -14 583.0 -6.0Q567 2 558 16Q545 35 548.5 64.5Q552 94 564 132Z" fill="#C9972A" transform="translate(682.772,222.000) scale(0.01900,-0.01900)"/>
<path d="M378 490Q354 490 324.5 457.0Q295 424 265.0 368.0Q235 312 208.0 241.0Q181 170 163 94L181 200Q221 319 258.0 391.0Q295 463 334.0 496.0Q373 529 416 529Q467 529 496.5 492.5Q526 456 526 384Q526 338 513.5 284.5Q501 231 476.5 178.5Q452 126 416.0 82.0Q380 38 334.0 12.0Q288 -14 231 -14Q201 -14 176.5 2.0Q152 18 142 47L150 66Q163 36 179.5 23.5Q196 11 218 11Q250 11 280.0 36.5Q310 62 335.5 105.0Q361 148 380.5 200.0Q400 252 410.0 305.0Q420 358 420 404Q420 450 409.0 470.0Q398 490 378 490ZM221 664Q251 666 279.0 670.0Q307 674 332 683L113 -84Q100 -129 123.0 -144.5Q146 -160 193 -160L187 -181Q166 -180 127.0 -178.5Q88 -177 45 -177Q11 -177 -24.0 -178.5Q-59 -180 -76 -181L-70 -160Q-34 -160 -18.0 -146.5Q-2 -133 8 -98ZM18 355Q56 393 89.5 431.0Q123 469 154.5 521.0Q186 573 218 653L221 637Q200 568 170.0 516.5Q140 465 104.5 423.0Q69 381 29 342Z" fill="#C9972A" transform="translate(698.447,222.000) scale(0.01900,-0.01900)"/>
<path d="M115 85Q108 57 111.5 42.0Q115 27 132 27Q149 27 166.0 47.0Q183 67 202 121L217 162H236L211 89Q198 50 178.0 27.5Q158 5 135.0 -4.5Q112 -14 87 -14Q54 -14 37.0 -2.0Q20 10 14.5 31.5Q9 53 12.5 79.0Q16 105 24 132L185 667Q195 701 183.0 717.0Q171 733 122 733L129 754Q189 755 235.5 765.5Q282 776 325 795Z" fill="#C9972A" transform="translate(709.125,222.000) scale(0.01900,-0.01900)"/>
<path d="M185 692Q189 724 213.0 744.0Q237 764 268 764Q297 764 313.5 745.5Q330 727 326 700Q322 669 297.5 648.5Q273 628 242 628Q213 628 197.0 646.5Q181 665 185 692ZM152 430Q171 488 139 488Q117 488 100.0 465.5Q83 443 65 394L49 352H30L56 426Q71 467 92.0 489.0Q113 511 137.5 520.0Q162 529 185 529Q218 529 235.0 516.0Q252 503 256.0 482.0Q260 461 256.0 436.5Q252 412 244 389L138 85Q128 57 132.0 42.0Q136 27 153 27Q171 27 188.0 46.5Q205 66 226 121L242 162H261L235 89Q221 49 200.0 27.0Q179 5 155.5 -4.5Q132 -14 108 -14Q65 -14 47.5 5.5Q30 25 32.0 58.5Q34 92 48 132Z" fill="#C9972A" transform="translate(714.540,222.000) scale(0.01900,-0.01900)"/>
<path d="M384 515 381 495H58L63 515ZM135 85Q127 54 139.0 40.5Q151 27 171 27Q193 27 215.0 46.5Q237 66 257 122L271 162H290L269 101Q248 37 212.0 11.5Q176 -14 128 -14Q85 -14 62.5 4.5Q40 23 36.0 56.5Q32 90 44 132L197 666Q227 667 254.5 670.0Q282 673 305 680Z" fill="#C9972A" transform="translate(720.411,222.000) scale(0.01900,-0.01900)"/>
<path d="M396 348Q359 244 326.0 174.5Q293 105 260.5 63.5Q228 22 194.0 4.0Q160 -14 124 -14Q80 -14 59.5 5.5Q39 25 38.0 59.0Q37 93 51 137L148 430Q158 460 154.5 474.0Q151 488 133 488Q116 488 98.5 469.0Q81 450 61 394L46 353H27L52 426Q67 468 88.5 490.0Q110 512 133.5 520.5Q157 529 178 529Q222 529 239.0 509.0Q256 489 254.5 455.5Q253 422 239 383L146 102Q120 24 164 24Q186 24 212.0 46.5Q238 69 265.5 111.0Q293 153 320.0 210.0Q347 267 372.0 336.0Q397 405 417 482ZM410 85Q403 59 403.5 43.0Q404 27 423 27Q444 27 461.5 48.5Q479 70 496 121L511 163H530L505 89Q491 48 470.0 26.0Q449 4 425.5 -5.0Q402 -14 379 -14Q360 -14 344.5 -6.5Q329 1 321 15Q312 33 314.0 59.0Q316 85 326 126L425 515Q456 516 483.5 519.0Q511 522 534 529Z" fill="#C9972A" transform="translate(726.909,222.000) scale(0.01900,-0.01900)"/>
<path d="M387 85Q380 62 382.5 44.5Q385 27 404 27Q422 27 438.5 47.0Q455 67 473 121L487 162H506L482 89Q470 49 449.5 26.5Q429 4 405.5 -5.0Q382 -14 361 -14Q300 -14 293 39Q289 56 291.5 79.5Q294 103 303 132L445 667Q454 701 442.0 717.0Q430 733 381 733L387 754Q448 755 494.5 765.5Q541 776 583 795ZM158 24Q180 24 209.0 51.0Q238 78 268.0 126.0Q298 174 324.5 238.5Q351 303 368 376L353 268Q316 167 279.5 105.0Q243 43 204.0 14.5Q165 -14 118 -14Q87 -14 62.0 0.5Q37 15 23.0 44.5Q9 74 9 121Q9 168 24.5 223.0Q40 278 68.5 332.0Q97 386 137.5 430.5Q178 475 228.0 502.0Q278 529 336 529Q362 529 380.5 512.5Q399 496 401 464L393 444Q389 477 375.0 491.5Q361 506 341 506Q307 506 274.0 481.0Q241 456 213.0 413.5Q185 371 163.5 319.0Q142 267 130.0 211.5Q118 156 118 105Q118 64 128.0 44.0Q138 24 158 24Z" fill="#C9972A" transform="translate(737.872,222.000) scale(0.01900,-0.01900)"/>
<path d="M100 224Q151 242 193.5 261.0Q236 280 263 302Q300 333 321.5 375.5Q343 418 343 469Q343 495 339.0 502.5Q335 510 327 510Q303 510 275.5 488.0Q248 466 221.0 427.5Q194 389 171.5 340.5Q149 292 135.5 237.5Q122 183 122 130Q122 78 141.5 56.0Q161 34 193 34Q226 34 266.0 54.5Q306 75 345 128L361 120Q341 87 309.0 56.0Q277 25 236.5 5.5Q196 -14 149 -14Q108 -14 76.0 2.0Q44 18 26.5 49.5Q9 81 9 127Q9 173 25.5 227.5Q42 282 72.5 335.0Q103 388 145.0 432.5Q187 477 239.0 503.0Q291 529 349 529Q385 529 409.0 511.5Q433 494 433 459Q433 419 410.5 384.5Q388 350 350.0 322.0Q312 294 267.5 272.0Q223 250 178.5 234.0Q134 218 99 208Z" fill="#C9972A" transform="translate(748.398,222.000) scale(0.01900,-0.01900)"/>
<path d="M64 15Q72 11 81.5 8.5Q91 6 108 6Q149 6 176.0 31.5Q203 57 203 104Q203 135 190.5 167.0Q178 199 150 239Q127 273 106.5 306.5Q86 340 86 385Q86 428 107.0 460.0Q128 492 165.5 510.5Q203 529 250 529Q281 529 311.5 521.5Q342 514 362.0 494.0Q382 474 382 436Q382 425 376.5 411.0Q371 397 360.0 387.0Q349 377 331 377Q312 377 299.0 391.0Q286 405 286 427Q286 448 294.0 466.5Q302 485 315 500Q298 510 270 510Q233 510 209.5 486.0Q186 462 186 419Q186 396 193.0 377.5Q200 359 214.0 339.0Q228 319 246 291Q272 250 288.5 215.0Q305 180 305 142Q305 97 281.5 61.5Q258 26 218.0 6.0Q178 -14 127 -14Q91 -14 57.5 -3.5Q24 7 3.0 29.5Q-18 52 -18 91Q-18 109 -7.5 127.0Q3 145 27 145Q52 145 63.5 124.5Q75 104 75 77Q75 57 71.0 42.0Q67 27 64 15Z" fill="#C9972A" transform="translate(756.796,222.000) scale(0.01900,-0.01900)"/>
</g>
<g>
<path d="M756 469Q756 404 737.0 337.0Q718 270 678.5 210.0Q639 150 580.5 102.5Q522 55 442.5 27.5Q363 0 263 0Q247 0 224.5 1.0Q202 2 174.0 2.5Q146 3 112 3Q89 3 60.5 2.5Q32 2 5.5 1.5Q-21 1 -38 0L-35 20Q-3 22 15.5 28.0Q34 34 45.0 52.0Q56 70 65 106L196 602Q204 631 203.5 649.5Q203 668 188.5 677.0Q174 686 138 688L141 708Q159 707 187.0 706.0Q215 705 246.5 705.0Q278 705 305 705Q323 706 351.0 706.5Q379 707 407.0 707.5Q435 708 454 708Q599 708 677.5 648.0Q756 588 756 469ZM263 18Q327 18 379.5 46.0Q432 74 472.0 122.5Q512 171 539.0 233.0Q566 295 580.0 363.5Q594 432 594 501Q594 593 556.0 641.5Q518 690 432 690Q407 690 394.0 683.5Q381 677 373.0 659.0Q365 641 355 604L224 104Q216 72 214.0 53.0Q212 34 222.5 26.0Q233 18 263 18Z" fill="#F1F5F9" transform="translate(360.000,278.000) scale(0.02600,-0.02600)"/>
<path d="M131 217Q172 233 209.0 253.0Q246 273 272 297Q311 332 334.5 378.5Q358 425 358 479Q358 499 354.0 505.5Q350 512 342 512Q320 512 294.5 489.5Q269 467 244.0 429.5Q219 392 198.5 344.0Q178 296 165.5 244.0Q153 192 153 143Q153 87 174.5 66.5Q196 46 230 46Q257 46 297.0 64.0Q337 82 376 128L392 120Q371 87 337.0 56.0Q303 25 258.0 5.5Q213 -14 160 -14Q115 -14 79.5 2.0Q44 18 23.5 49.5Q3 81 3 127Q3 180 20.5 236.0Q38 292 70.0 344.5Q102 397 147.0 439.5Q192 482 247.0 506.5Q302 531 364 531Q408 531 438.0 511.5Q468 492 468 452Q468 413 446.5 379.0Q425 345 389.0 317.0Q353 289 308.5 267.0Q264 245 217.5 229.0Q171 213 130 204Z" fill="#F1F5F9" transform="translate(380.046,278.000) scale(0.02600,-0.02600)"/>
<path d="M358 511Q321 511 285.0 479.5Q249 448 220.5 395.0Q192 342 175.0 276.0Q158 210 158 140Q158 87 179.0 63.5Q200 40 234 40Q266 40 299.0 59.0Q332 78 366 128L386 120Q366 87 334.5 56.0Q303 25 261.5 5.5Q220 -14 168 -14Q98 -14 53.0 23.5Q8 61 8 140Q8 189 23.5 243.0Q39 297 68.0 348.5Q97 400 139.0 441.0Q181 482 234.0 506.5Q287 531 349 531Q404 531 437.5 503.5Q471 476 471 435Q471 408 458.0 382.5Q445 357 422.5 340.5Q400 324 372 324Q348 324 331.5 339.5Q315 355 315 382Q315 423 342.5 452.5Q370 482 406 491Q398 501 386.5 506.0Q375 511 358 511Z" fill="#F1F5F9" transform="translate(392.240,278.000) scale(0.02600,-0.02600)"/>
<path d="M331 511Q308 511 282.5 483.5Q257 456 232.5 410.0Q208 364 188.5 307.0Q169 250 157.5 189.5Q146 129 146 74Q146 38 154.5 22.0Q163 6 180 6Q203 6 228.0 32.5Q253 59 277.0 104.0Q301 149 320.5 205.5Q340 262 352.0 323.0Q364 384 364 441Q364 483 355.5 497.0Q347 511 331 511ZM12 151Q12 197 24.5 249.0Q37 301 63.0 351.0Q89 401 127.5 441.5Q166 482 218.5 506.5Q271 531 336 531Q413 531 455.5 489.0Q498 447 498 366Q498 320 485.5 268.0Q473 216 447.0 166.0Q421 116 382.5 75.5Q344 35 291.5 10.5Q239 -14 174 -14Q97 -14 54.5 28.0Q12 70 12 151Z" fill="#F1F5F9" transform="translate(404.278,278.000) scale(0.02600,-0.02600)"/>
<path d="M424 85Q415 61 419.5 48.0Q424 35 438 35Q451 35 466.5 50.5Q482 66 499 114L516 162H535L511 89Q498 48 476.0 25.5Q454 3 428.5 -5.5Q403 -14 379 -14Q317 -14 300 32Q291 51 292.0 79.5Q293 108 304 145L443 667Q453 701 441.0 717.0Q429 733 380 733L386 754Q457 755 513.0 765.5Q569 776 620 795ZM184 36Q201 36 224.0 58.0Q247 80 273.0 123.5Q299 167 323.0 230.5Q347 294 366 376L351 268Q318 172 285.5 109.0Q253 46 214.5 16.0Q176 -14 123 -14Q90 -14 63.0 1.0Q36 16 20.0 46.5Q4 77 4 126Q4 172 18.5 226.5Q33 281 61.5 334.0Q90 387 130.5 432.0Q171 477 223.0 504.0Q275 531 337 531Q369 531 384.5 516.5Q400 502 403 476L395 456Q391 482 381.0 495.0Q371 508 351 508Q325 508 297.0 484.5Q269 461 243.5 420.5Q218 380 197.0 328.5Q176 277 164.0 219.5Q152 162 152 105Q152 71 159.5 53.5Q167 36 184 36Z" fill="#F1F5F9" transform="translate(418.032,278.000) scale(0.02600,-0.02600)"/>
<path d="M177 684Q179 727 208.5 750.0Q238 773 279 773Q316 773 335.5 755.5Q355 738 353 707Q351 668 321.0 643.5Q291 619 249 619Q214 619 194.5 636.5Q175 654 177 684ZM139 432Q156 482 128 482Q110 482 95.0 464.0Q80 446 64 403L44 352H25L53 428Q67 468 88.5 490.0Q110 512 136.5 521.5Q163 531 192 531Q227 531 247.0 518.0Q267 505 274.0 484.5Q281 464 279.0 439.5Q277 415 269 391L164 85Q155 58 159.5 46.5Q164 35 178 35Q191 35 206.5 50.0Q222 65 241 114L259 162H278L252 89Q238 48 216.0 26.0Q194 4 168.5 -5.0Q143 -14 117 -14Q74 -14 51.5 5.0Q29 24 27.0 60.0Q25 96 41 145Z" fill="#F1F5F9" transform="translate(433.086,278.000) scale(0.02600,-0.02600)"/>
<path d="M157 0H16L137 432Q142 446 143.5 457.5Q145 469 141.0 475.5Q137 482 126 482Q108 482 93.5 465.5Q79 449 62 403L43 352H24L51 428Q71 485 103.5 508.0Q136 531 180 531Q216 531 235.0 518.5Q254 506 260.5 485.0Q267 464 265.5 439.5Q264 415 258 391ZM189 169Q228 278 261.5 348.5Q295 419 327.5 459.0Q360 499 394.0 515.0Q428 531 467 531Q515 531 536.0 510.0Q557 489 557.0 454.5Q557 420 544 380L446 85Q436 57 441.0 46.0Q446 35 459 35Q472 35 488.0 49.5Q504 64 522 114L540 162H559L534 89Q520 47 497.5 25.0Q475 3 449.5 -5.5Q424 -14 400 -14Q371 -14 351.0 -5.5Q331 3 320 19Q307 39 307.5 69.5Q308 100 323 145L413 415Q419 431 421.0 446.0Q423 461 420.0 471.0Q417 481 403 481Q384 481 360.0 456.5Q336 432 309.5 388.5Q283 345 257.0 287.0Q231 229 207.0 163.5Q183 98 164 29Z" fill="#F1F5F9" transform="translate(441.458,278.000) scale(0.02600,-0.02600)"/>
<path d="M223 226 269 231Q230 214 201.0 199.5Q172 185 156.0 173.5Q140 162 140 151Q140 142 151.5 135.5Q163 129 185 122L269 94Q298 85 324.0 71.5Q350 58 366.5 37.5Q383 17 383 -14Q383 -51 359.0 -83.0Q335 -115 292.5 -139.5Q250 -164 195.5 -177.5Q141 -191 79 -191Q28 -191 -13.0 -181.5Q-54 -172 -78.5 -155.0Q-103 -138 -103 -115Q-103 -96 -86.0 -80.0Q-69 -64 -42.0 -52.5Q-15 -41 17.0 -33.5Q49 -26 80 -23L84 -38Q50 -57 36.0 -77.0Q22 -97 22 -117Q22 -145 43.5 -159.5Q65 -174 101 -174Q128 -174 158.5 -166.0Q189 -158 215.0 -143.5Q241 -129 257.0 -109.5Q273 -90 273 -68Q273 -50 259.0 -43.0Q245 -36 221 -29L79 12Q54 19 36.5 35.5Q19 52 19 77Q19 105 42.5 128.0Q66 151 112.0 174.5Q158 198 223 226ZM266 512Q248 512 232.5 498.0Q217 484 205.5 460.0Q194 436 187.0 407.0Q180 378 176.5 348.0Q173 318 173 292Q173 259 181.5 246.0Q190 233 205 233Q230 233 247.5 253.5Q265 274 276.5 306.5Q288 339 293.0 376.5Q298 414 298 449Q298 475 292.0 493.5Q286 512 266 512ZM284 530Q349 530 392.0 503.5Q435 477 435 417Q435 369 404.5 322.5Q374 276 319.0 245.5Q264 215 188 215Q124 215 81.0 242.0Q38 269 38 327Q38 360 53.5 395.5Q69 431 99.5 461.5Q130 492 176.0 511.0Q222 530 284 530ZM362 478 343 485Q358 524 391.5 549.5Q425 575 464 575Q495 575 512.0 558.0Q529 541 529 511Q529 483 514.0 468.0Q499 453 482 453Q466 453 451.5 465.0Q437 477 433.0 502.0Q429 527 445 565L453 560Q415 546 396.0 527.5Q377 509 362 478Z" fill="#F1F5F9" transform="translate(457.136,278.000) scale(0.02600,-0.02600)"/>
<path d="M562 210Q556 194 550.0 173.0Q544 152 538 128Q533 109 525.0 73.5Q517 38 511 0Q460 2 397.0 2.5Q334 3 284 3Q259 3 220.5 3.0Q182 3 136.0 2.5Q90 2 44.0 1.5Q-2 1 -43 0L-38 20Q-4 22 15.0 28.0Q34 34 44.5 52.0Q55 70 65 106L197 602Q207 639 205.0 656.5Q203 674 187.5 680.5Q172 687 138 688L143 708Q169 707 213.5 706.0Q258 705 308 705Q352 705 393.0 706.0Q434 707 464 708L459 688Q425 687 406.0 680.5Q387 674 376.0 656.5Q365 639 355 602L223 106Q214 70 215.0 52.0Q216 34 231.5 28.5Q247 23 281 23H321Q366 23 405.5 41.0Q445 59 479.0 100.0Q513 141 540 210Z" fill="#F1F5F9" transform="translate(476.038,278.000) scale(0.02600,-0.02600)"/>
<path d="M177 684Q179 727 208.5 750.0Q238 773 279 773Q316 773 335.5 755.5Q355 738 353 707Q351 668 321.0 643.5Q291 619 249 619Q214 619 194.5 636.5Q175 654 177 684ZM139 432Q156 482 128 482Q110 482 95.0 464.0Q80 446 64 403L44 352H25L53 428Q67 468 88.5 490.0Q110 512 136.5 521.5Q163 531 192 531Q227 531 247.0 518.0Q267 505 274.0 484.5Q281 464 279.0 439.5Q277 415 269 391L164 85Q155 58 159.5 46.5Q164 35 178 35Q191 35 206.5 50.0Q222 65 241 114L259 162H278L252 89Q238 48 216.0 26.0Q194 4 168.5 -5.0Q143 -14 117 -14Q74 -14 51.5 5.0Q29 24 27.0 60.0Q25 96 41 145Z" fill="#F1F5F9" transform="translate(491.768,278.000) scale(0.02600,-0.02600)"/>
<path d="M55 497 61 517H392L386 497ZM420 764Q404 764 391.0 758.5Q378 753 367 744Q354 732 343.5 710.5Q333 689 324.0 659.5Q315 630 306 594L100 -174Q58 -175 23.0 -178.0Q-12 -181 -45 -188L142 508Q164 593 192.5 648.5Q221 704 260 736Q289 759 324.5 770.5Q360 782 401 782Q464 782 498.5 756.0Q533 730 533 686Q533 666 521.5 645.5Q510 625 489.5 612.0Q469 599 441 599Q412 599 394.5 613.0Q377 627 377 653Q377 686 397.5 712.0Q418 738 454 751Q449 756 440.5 760.0Q432 764 420 764Z" fill="#F1F5F9" transform="translate(500.140,278.000) scale(0.02600,-0.02600)"/>
<path d="M131 217Q172 233 209.0 253.0Q246 273 272 297Q311 332 334.5 378.5Q358 425 358 479Q358 499 354.0 505.5Q350 512 342 512Q320 512 294.5 489.5Q269 467 244.0 429.5Q219 392 198.5 344.0Q178 296 165.5 244.0Q153 192 153 143Q153 87 174.5 66.5Q196 46 230 46Q257 46 297.0 64.0Q337 82 376 128L392 120Q371 87 337.0 56.0Q303 25 258.0 5.5Q213 -14 160 -14Q115 -14 79.5 2.0Q44 18 23.5 49.5Q3 81 3 127Q3 180 20.5 236.0Q38 292 70.0 344.5Q102 397 147.0 439.5Q192 482 247.0 506.5Q302 531 364 531Q408 531 438.0 511.5Q468 492 468 452Q468 413 446.5 379.0Q425 345 389.0 317.0Q353 289 308.5 267.0Q264 245 217.5 229.0Q171 213 130 204Z" fill="#F1F5F9" transform="translate(509.006,278.000) scale(0.02600,-0.02600)"/>
<path d="M-1 46Q-1 86 27.5 113.0Q56 140 96 140Q128 140 146.0 124.0Q164 108 164 79Q164 55 150.5 33.5Q137 12 115.0 -1.0Q93 -14 66 -14Q34 -14 16.5 2.0Q-1 18 -1 46Z" fill="#F1F5F9" transform="translate(521.200,278.000) scale(0.02600,-0.02600)"/>
</g>
<g>
<path d="M225 346 230 366H428L423 346ZM330 366Q358 366 380.0 377.0Q402 388 418.5 406.0Q435 424 447.0 445.0Q459 466 467 486H490Q474 440 467.0 412.5Q460 385 453 356Q448 338 444.0 321.0Q440 304 435.5 282.5Q431 261 424 226H402Q403 246 401.5 267.0Q400 288 392.0 306.0Q384 324 366.5 335.0Q349 346 319 346ZM598 528Q602 587 593.0 621.5Q584 656 558.5 670.5Q533 685 488 685H457Q424 685 405.5 679.5Q387 674 376.5 656.5Q366 639 356 602L224 106Q214 70 215.5 52.0Q217 34 232.5 28.5Q248 23 281 23H318Q372 23 409.0 40.0Q446 57 475.5 95.5Q505 134 534 200H557Q552 187 546.0 168.0Q540 149 535 128Q530 109 522.0 73.5Q514 38 509 0Q458 2 395.0 2.5Q332 3 282 3Q257 3 218.5 3.0Q180 3 135.0 2.5Q90 2 44.0 1.5Q-2 1 -43 0L-38 20Q-4 22 15.0 28.0Q34 34 44.5 52.0Q55 70 65 106L197 602Q207 639 205.0 656.5Q203 674 187.5 680.5Q172 687 138 688L143 708Q184 707 230.0 706.5Q276 706 321.0 705.5Q366 705 404.5 705.0Q443 705 468 705Q513 705 569.5 705.5Q626 706 671 708Q658 673 649.0 645.0Q640 617 633 590Q629 572 625.5 556.0Q622 540 620 528Z" fill="#22D3EE" transform="translate(535.084,278.000) scale(0.02600,-0.02600)"/>
<path d="M157 0H16L137 432Q142 446 143.5 457.5Q145 469 141.0 475.5Q137 482 126 482Q108 482 93.5 465.5Q79 449 62 403L43 352H24L51 428Q71 485 103.5 508.0Q136 531 180 531Q216 531 235.0 518.5Q254 506 260.5 485.0Q267 464 265.5 439.5Q264 415 258 391ZM189 169Q228 278 261.5 348.5Q295 419 327.5 459.0Q360 499 394.0 515.0Q428 531 467 531Q515 531 536.0 510.0Q557 489 557.0 454.5Q557 420 544 380L446 85Q436 57 441.0 46.0Q446 35 459 35Q472 35 488.0 49.5Q504 64 522 114L540 162H559L534 89Q520 47 497.5 25.0Q475 3 449.5 -5.5Q424 -14 400 -14Q371 -14 351.0 -5.5Q331 3 320 19Q307 39 307.5 69.5Q308 100 323 145L413 415Q419 431 421.0 446.0Q423 461 420.0 471.0Q417 481 403 481Q384 481 360.0 456.5Q336 432 309.5 388.5Q283 345 257.0 287.0Q231 229 207.0 163.5Q183 98 164 29Z" fill="#22D3EE" transform="translate(551.360,278.000) scale(0.02600,-0.02600)"/>
<path d="M358 511Q321 511 285.0 479.5Q249 448 220.5 395.0Q192 342 175.0 276.0Q158 210 158 140Q158 87 179.0 63.5Q200 40 234 40Q266 40 299.0 59.0Q332 78 366 128L386 120Q366 87 334.5 56.0Q303 25 261.5 5.5Q220 -14 168 -14Q98 -14 53.0 23.5Q8 61 8 140Q8 189 23.5 243.0Q39 297 68.0 348.5Q97 400 139.0 441.0Q181 482 234.0 506.5Q287 531 349 531Q404 531 437.5 503.5Q471 476 471 435Q471 408 458.0 382.5Q445 357 422.5 340.5Q400 324 372 324Q348 324 331.5 339.5Q315 355 315 382Q315 423 342.5 452.5Q370 482 406 491Q398 501 386.5 506.0Q375 511 358 511Z" fill="#22D3EE" transform="translate(567.038,278.000) scale(0.02600,-0.02600)"/>
<path d="M331 511Q308 511 282.5 483.5Q257 456 232.5 410.0Q208 364 188.5 307.0Q169 250 157.5 189.5Q146 129 146 74Q146 38 154.5 22.0Q163 6 180 6Q203 6 228.0 32.5Q253 59 277.0 104.0Q301 149 320.5 205.5Q340 262 352.0 323.0Q364 384 364 441Q364 483 355.5 497.0Q347 511 331 511ZM12 151Q12 197 24.5 249.0Q37 301 63.0 351.0Q89 401 127.5 441.5Q166 482 218.5 506.5Q271 531 336 531Q413 531 455.5 489.0Q498 447 498 366Q498 320 485.5 268.0Q473 216 447.0 166.0Q421 116 382.5 75.5Q344 35 291.5 10.5Q239 -14 174 -14Q97 -14 54.5 28.0Q12 70 12 151Z" fill="#22D3EE" transform="translate(579.076,278.000) scale(0.02600,-0.02600)"/>
<path d="M424 85Q415 61 419.5 48.0Q424 35 438 35Q451 35 466.5 50.5Q482 66 499 114L516 162H535L511 89Q498 48 476.0 25.5Q454 3 428.5 -5.5Q403 -14 379 -14Q317 -14 300 32Q291 51 292.0 79.5Q293 108 304 145L443 667Q453 701 441.0 717.0Q429 733 380 733L386 754Q457 755 513.0 765.5Q569 776 620 795ZM184 36Q201 36 224.0 58.0Q247 80 273.0 123.5Q299 167 323.0 230.5Q347 294 366 376L351 268Q318 172 285.5 109.0Q253 46 214.5 16.0Q176 -14 123 -14Q90 -14 63.0 1.0Q36 16 20.0 46.5Q4 77 4 126Q4 172 18.5 226.5Q33 281 61.5 334.0Q90 387 130.5 432.0Q171 477 223.0 504.0Q275 531 337 531Q369 531 384.5 516.5Q400 502 403 476L395 456Q391 482 381.0 495.0Q371 508 351 508Q325 508 297.0 484.5Q269 461 243.5 420.5Q218 380 197.0 328.5Q176 277 164.0 219.5Q152 162 152 105Q152 71 159.5 53.5Q167 36 184 36Z" fill="#22D3EE" transform="translate(592.830,278.000) scale(0.02600,-0.02600)"/>
<path d="M177 684Q179 727 208.5 750.0Q238 773 279 773Q316 773 335.5 755.5Q355 738 353 707Q351 668 321.0 643.5Q291 619 249 619Q214 619 194.5 636.5Q175 654 177 684ZM139 432Q156 482 128 482Q110 482 95.0 464.0Q80 446 64 403L44 352H25L53 428Q67 468 88.5 490.0Q110 512 136.5 521.5Q163 531 192 531Q227 531 247.0 518.0Q267 505 274.0 484.5Q281 464 279.0 439.5Q277 415 269 391L164 85Q155 58 159.5 46.5Q164 35 178 35Q191 35 206.5 50.0Q222 65 241 114L259 162H278L252 89Q238 48 216.0 26.0Q194 4 168.5 -5.0Q143 -14 117 -14Q74 -14 51.5 5.0Q29 24 27.0 60.0Q25 96 41 145Z" fill="#22D3EE" transform="translate(607.884,278.000) scale(0.02600,-0.02600)"/>
<path d="M157 0H16L137 432Q142 446 143.5 457.5Q145 469 141.0 475.5Q137 482 126 482Q108 482 93.5 465.5Q79 449 62 403L43 352H24L51 428Q71 485 103.5 508.0Q136 531 180 531Q216 531 235.0 518.5Q254 506 260.5 485.0Q267 464 265.5 439.5Q264 415 258 391ZM189 169Q228 278 261.5 348.5Q295 419 327.5 459.0Q360 499 394.0 515.0Q428 531 467 531Q515 531 536.0 510.0Q557 489 557.0 454.5Q557 420 544 380L446 85Q436 57 441.0 46.0Q446 35 459 35Q472 35 488.0 49.5Q504 64 522 114L540 162H559L534 89Q520 47 497.5 25.0Q475 3 449.5 -5.5Q424 -14 400 -14Q371 -14 351.0 -5.5Q331 3 320 19Q307 39 307.5 69.5Q308 100 323 145L413 415Q419 431 421.0 446.0Q423 461 420.0 471.0Q417 481 403 481Q384 481 360.0 456.5Q336 432 309.5 388.5Q283 345 257.0 287.0Q231 229 207.0 163.5Q183 98 164 29Z" fill="#22D3EE" transform="translate(616.256,278.000) scale(0.02600,-0.02600)"/>
<path d="M223 226 269 231Q230 214 201.0 199.5Q172 185 156.0 173.5Q140 162 140 151Q140 142 151.5 135.5Q163 129 185 122L269 94Q298 85 324.0 71.5Q350 58 366.5 37.5Q383 17 383 -14Q383 -51 359.0 -83.0Q335 -115 292.5 -139.5Q250 -164 195.5 -177.5Q141 -191 79 -191Q28 -191 -13.0 -181.5Q-54 -172 -78.5 -155.0Q-103 -138 -103 -115Q-103 -96 -86.0 -80.0Q-69 -64 -42.0 -52.5Q-15 -41 17.0 -33.5Q49 -26 80 -23L84 -38Q50 -57 36.0 -77.0Q22 -97 22 -117Q22 -145 43.5 -159.5Q65 -174 101 -174Q128 -174 158.5 -166.0Q189 -158 215.0 -143.5Q241 -129 257.0 -109.5Q273 -90 273 -68Q273 -50 259.0 -43.0Q245 -36 221 -29L79 12Q54 19 36.5 35.5Q19 52 19 77Q19 105 42.5 128.0Q66 151 112.0 174.5Q158 198 223 226ZM266 512Q248 512 232.5 498.0Q217 484 205.5 460.0Q194 436 187.0 407.0Q180 378 176.5 348.0Q173 318 173 292Q173 259 181.5 246.0Q190 233 205 233Q230 233 247.5 253.5Q265 274 276.5 306.5Q288 339 293.0 376.5Q298 414 298 449Q298 475 292.0 493.5Q286 512 266 512ZM284 530Q349 530 392.0 503.5Q435 477 435 417Q435 369 404.5 322.5Q374 276 319.0 245.5Q264 215 188 215Q124 215 81.0 242.0Q38 269 38 327Q38 360 53.5 395.5Q69 431 99.5 461.5Q130 492 176.0 511.0Q222 530 284 530ZM362 478 343 485Q358 524 391.5 549.5Q425 575 464 575Q495 575 512.0 558.0Q529 541 529 511Q529 483 514.0 468.0Q499 453 482 453Q466 453 451.5 465.0Q437 477 433.0 502.0Q429 527 445 565L453 560Q415 546 396.0 527.5Q377 509 362 478Z" fill="#22D3EE" transform="translate(631.934,278.000) scale(0.02600,-0.02600)"/>
<path d="M402 517 399 497H52L57 517ZM164 85Q157 59 165.5 47.0Q174 35 191 35Q212 35 233.0 56.0Q254 77 270 121L285 162H304L284 104Q264 44 225.5 15.0Q187 -14 134 -14Q88 -14 63.0 7.0Q38 28 33.5 64.5Q29 101 41 145L191 666Q234 667 269.0 670.0Q304 673 336 680Z" fill="#22D3EE" transform="translate(650.836,278.000) scale(0.02600,-0.02600)"/>
<path d="M123 0H-18L180 667Q190 701 178.0 717.0Q166 733 117 733L123 754Q194 755 250.0 765.5Q306 776 356 795ZM148 145Q188 260 222.5 335.0Q257 410 290.0 453.0Q323 496 358.0 513.5Q393 531 433 531Q482 531 502.5 510.0Q523 489 523.0 454.5Q523 420 510 380L412 85Q403 58 408.0 46.5Q413 35 426 35Q439 35 454.5 49.5Q470 64 488 114L506 162H525L500 89Q486 47 463.5 25.0Q441 3 415.5 -5.5Q390 -14 366 -14Q318 -14 296.5 7.5Q275 29 275.0 65.5Q275 102 290 145L379 415Q385 432 387.5 447.0Q390 462 386.5 471.5Q383 481 369 481Q350 481 325.0 456.0Q300 431 273.5 386.0Q247 341 220.5 281.0Q194 221 169.5 152.0Q145 83 126 10Z" fill="#22D3EE" transform="translate(660.014,278.000) scale(0.02600,-0.02600)"/>
<path d="M131 217Q172 233 209.0 253.0Q246 273 272 297Q311 332 334.5 378.5Q358 425 358 479Q358 499 354.0 505.5Q350 512 342 512Q320 512 294.5 489.5Q269 467 244.0 429.5Q219 392 198.5 344.0Q178 296 165.5 244.0Q153 192 153 143Q153 87 174.5 66.5Q196 46 230 46Q257 46 297.0 64.0Q337 82 376 128L392 120Q371 87 337.0 56.0Q303 25 258.0 5.5Q213 -14 160 -14Q115 -14 79.5 2.0Q44 18 23.5 49.5Q3 81 3 127Q3 180 20.5 236.0Q38 292 70.0 344.5Q102 397 147.0 439.5Q192 482 247.0 506.5Q302 531 364 531Q408 531 438.0 511.5Q468 492 468 452Q468 413 446.5 379.0Q425 345 389.0 317.0Q353 289 308.5 267.0Q264 245 217.5 229.0Q171 213 130 204Z" fill="#22D3EE" transform="translate(674.834,278.000) scale(0.02600,-0.02600)"/>
<path d="M230 342 235 362H443L439 342ZM588 498Q597 569 588.0 609.5Q579 650 551.0 667.5Q523 685 474 685H451Q420 685 403.0 679.5Q386 674 375.5 656.5Q365 639 356 602L224 106Q214 70 217.0 52.0Q220 34 240.5 28.0Q261 22 302 20L298 0Q267 2 218.5 2.5Q170 3 120 3Q70 3 27.0 2.5Q-16 2 -43 0L-38 20Q-4 22 15.0 28.0Q34 34 44.5 52.0Q55 70 65 106L197 602Q207 639 205.0 656.5Q203 674 187.5 680.5Q172 687 138 688L143 708Q184 707 230.0 706.5Q276 706 321.0 705.5Q366 705 404.5 705.0Q443 705 468 705Q513 705 569.5 705.5Q626 706 671 708Q658 672 649.0 643.0Q640 614 632 586Q625 560 619.5 538.0Q614 516 611 498ZM338 362Q365 362 386.0 372.0Q407 382 423.5 399.5Q440 417 452.5 438.5Q465 460 475 482H497Q482 436 475.0 408.5Q468 381 460 352Q454 323 446.5 290.0Q439 257 429 204H407Q408 235 405.5 260.0Q403 285 394.5 303.5Q386 322 370.0 332.0Q354 342 327 342Z" fill="#22D3EE" transform="translate(693.658,278.000) scale(0.02600,-0.02600)"/>
<path d="M393 351Q356 241 322.0 169.5Q288 98 255.5 58.5Q223 19 189.0 2.5Q155 -14 117 -14Q75 -14 52.5 4.0Q30 22 27.5 56.0Q25 90 40 137L137 432Q147 461 141.5 471.5Q136 482 124 482Q111 482 95.0 467.5Q79 453 61 403L43 355H24L49 428Q64 470 86.5 492.0Q109 514 134.5 522.5Q160 531 183 531Q228 531 250.0 511.5Q272 492 274.0 456.5Q276 421 260 372L170 102Q148 36 180 36Q199 36 223.0 61.0Q247 86 273.5 130.0Q300 174 326.0 233.0Q352 292 376.0 360.0Q400 428 418 499ZM442 85Q435 60 436.0 47.5Q437 35 453 35Q471 35 486.5 52.5Q502 70 517 114L536 165H555L528 89Q515 50 493.5 27.5Q472 5 446.5 -4.5Q421 -14 394 -14Q367 -14 348.5 -5.0Q330 4 320 20Q310 39 311.5 65.5Q313 92 321 126L422 517Q463 518 499.5 521.0Q536 524 567 531Z" fill="#22D3EE" transform="translate(708.946,278.000) scale(0.02600,-0.02600)"/>
<path d="M402 517 399 497H52L57 517ZM164 85Q157 59 165.5 47.0Q174 35 191 35Q212 35 233.0 56.0Q254 77 270 121L285 162H304L284 104Q264 44 225.5 15.0Q187 -14 134 -14Q88 -14 63.0 7.0Q38 28 33.5 64.5Q29 101 41 145L191 666Q234 667 269.0 670.0Q304 673 336 680Z" fill="#22D3EE" transform="translate(724.468,278.000) scale(0.02600,-0.02600)"/>
<path d="M393 351Q356 241 322.0 169.5Q288 98 255.5 58.5Q223 19 189.0 2.5Q155 -14 117 -14Q75 -14 52.5 4.0Q30 22 27.5 56.0Q25 90 40 137L137 432Q147 461 141.5 471.5Q136 482 124 482Q111 482 95.0 467.5Q79 453 61 403L43 355H24L49 428Q64 470 86.5 492.0Q109 514 134.5 522.5Q160 531 183 531Q228 531 250.0 511.5Q272 492 274.0 456.5Q276 421 260 372L170 102Q148 36 180 36Q199 36 223.0 61.0Q247 86 273.5 130.0Q300 174 326.0 233.0Q352 292 376.0 360.0Q400 428 418 499ZM442 85Q435 60 436.0 47.5Q437 35 453 35Q471 35 486.5 52.5Q502 70 517 114L536 165H555L528 89Q515 50 493.5 27.5Q472 5 446.5 -4.5Q421 -14 394 -14Q367 -14 348.5 -5.0Q330 4 320 20Q310 39 311.5 65.5Q313 92 321 126L422 517Q463 518 499.5 521.0Q536 524 567 531Z" fill="#22D3EE" transform="translate(733.646,278.000) scale(0.02600,-0.02600)"/>
<path d="M156 0H15L137 432Q144 459 141.5 470.5Q139 482 126 482Q108 482 93.0 464.5Q78 447 61 403L42 352H23L50 428Q65 468 86.0 490.0Q107 512 133.5 521.5Q160 531 188 531Q220 531 237.0 518.5Q254 506 260.0 485.0Q266 464 264.5 439.5Q263 415 257 391ZM412 509Q392 509 369.0 497.0Q346 485 322.0 454.0Q298 423 271.5 368.0Q245 313 217.5 227.5Q190 142 161 21L183 156Q215 266 241.0 338.0Q267 410 293.5 452.5Q320 495 349.5 513.0Q379 531 417 531Q456 531 477.0 508.0Q498 485 498 450Q498 422 485.5 398.5Q473 375 451.5 360.5Q430 346 403 346Q374 346 358.0 361.5Q342 377 342 406Q342 430 353.0 450.5Q364 471 383.0 486.0Q402 501 425 506Q422 507 419.0 508.0Q416 509 412 509Z" fill="#22D3EE" transform="translate(749.168,278.000) scale(0.02600,-0.02600)"/>
<path d="M131 217Q172 233 209.0 253.0Q246 273 272 297Q311 332 334.5 378.5Q358 425 358 479Q358 499 354.0 505.5Q350 512 342 512Q320 512 294.5 489.5Q269 467 244.0 429.5Q219 392 198.5 344.0Q178 296 165.5 244.0Q153 192 153 143Q153 87 174.5 66.5Q196 46 230 46Q257 46 297.0 64.0Q337 82 376 128L392 120Q371 87 337.0 56.0Q303 25 258.0 5.5Q213 -14 160 -14Q115 -14 79.5 2.0Q44 18 23.5 49.5Q3 81 3 127Q3 180 20.5 236.0Q38 292 70.0 344.5Q102 397 147.0 439.5Q192 482 247.0 506.5Q302 531 364 531Q408 531 438.0 511.5Q468 492 468 452Q468 413 446.5 379.0Q425 345 389.0 317.0Q353 289 308.5 267.0Q264 245 217.5 229.0Q171 213 130 204Z" fill="#22D3EE" transform="translate(761.388,278.000) scale(0.02600,-0.02600)"/>
<path d="M-1 46Q-1 86 27.5 113.0Q56 140 96 140Q128 140 146.0 124.0Q164 108 164 79Q164 55 150.5 33.5Q137 12 115.0 -1.0Q93 -14 66 -14Q34 -14 16.5 2.0Q-1 18 -1 46Z" fill="#22D3EE" transform="translate(773.582,278.000) scale(0.02600,-0.02600)"/>
</g>
</svg>
